SplineFontDB: 3.2
FontName: Altinn-DINCondensed-Bold
FullName: Altinn-DIN Condensed Bold
FamilyName: Altinn-DIN Condensed
Weight: Bold
Copyright: Copyright (c) Altinn. All rights reserved.
Version: 2.00
ItalicAngle: 0
UnderlinePosition: -153.6
UnderlineWidth: 51.2
Ascent: 782
Descent: 242
InvalidEm: 0
LayerCount: 2
Layer: 0 1 "Back" 1
Layer: 1 1 "Fore" 0
XUID: [1021 976 -1802971697 14894]
StyleMap: 0x0020
FSType: 0
OS2Version: 4
OS2_WeightWidthSlopeOnly: 0
OS2_UseTypoMetrics: 1
CreationTime: 1462909513
ModificationTime: 1574596593
PfmFamily: 33
TTFWeight: 700
TTFWidth: 3
LineGap: 0
VLineGap: 0
Panose: 2 11 8 6 3 2 2 3 2 4
OS2TypoAscent: 801
OS2TypoAOffset: 0
OS2TypoDescent: -248
OS2TypoDOffset: 0
OS2TypoLinegap: 0
OS2WinAscent: 924
OS2WinAOffset: 0
OS2WinDescent: 188
OS2WinDOffset: 0
HheadAscent: 801
HheadAOffset: 0
HheadDescent: -248
HheadDOffset: 0
OS2SubXSize: 666
OS2SubYSize: 614
OS2SubXOff: 0
OS2SubYOff: 77
OS2SupXSize: 666
OS2SupYSize: 614
OS2SupXOff: 0
OS2SupYOff: 358
OS2StrikeYSize: 51
OS2StrikeYPos: 324
OS2CapHeight: 707
OS2XHeight: 541
OS2Vendor: 'MONO'
OS2CodePages: 20000001.00000000
OS2UnicodeRanges: 8000006f.4000000a.00000000.00000000
Lookup: 1 0 0 "'rtla' Right to Left Alternates lookup 0" { "'rtla' Right to Left Alternates lookup 0 subtable"  } ['rtla' ('DFLT' <'dflt' > ) ]
Lookup: 1 0 0 "'sups' Superscript lookup 1" { "'sups' Superscript lookup 1 subtable" ("superior") } ['sups' ('DFLT' <'dflt' > ) ]
Lookup: 4 0 0 "'frac' Diagonal Fractions lookup 2" { "'frac' Diagonal Fractions lookup 2 subtable"  } ['frac' ('DFLT' <'dflt' > ) ]
Lookup: 4 0 0 "'dlig' Discretionary Ligatures in Latin lookup 3" { "'dlig' Discretionary Ligatures in Latin lookup 3 subtable"  } ['dlig' ('latn' <'dflt' > ) ]
Lookup: 4 0 1 "'liga' Standard Ligatures in Latin lookup 4" { "'liga' Standard Ligatures in Latin lookup 4 subtable"  } ['liga' ('latn' <'dflt' > ) ]

StartChar: .notdef
Encoding: 65536 -1 0
Width: 614
Flags: W
LayerCount: 2
Fore
SplineSet
103 707 m 1,0,-1
 510 707 l 1,1,-1
 510 0 l 1,2,-1
 103 0 l 1,3,-1
 103 707 l 1,0,-1
475 35 m 1,4,-1
 475 672 l 1,5,-1
 138 672 l 1,6,-1
 138 35 l 1,7,-1
 475 35 l 1,4,-1
EndSplineSet
EndChar

StartChar: exclam
Encoding: 33 33 4
Width: 212
GlyphClass: 2
Flags: W
LayerCount: 2
Fore
SplineSet
42 707 m 1,0,-1
 171 707 l 1,1,-1
 146 225 l 1,2,-1
 67 225 l 1,3,-1
 42 707 l 1,0,-1
50 130 m 1,4,-1
 162 130 l 1,5,-1
 162 0 l 1,6,-1
 50 0 l 1,7,-1
 50 130 l 1,4,-1
EndSplineSet
EndChar

StartChar: quotedbl
Encoding: 34 34 5
Width: 359
GlyphClass: 2
Flags: W
LayerCount: 2
Fore
SplineSet
30 707 m 1,0,-1
 145 707 l 1,1,-1
 145 408 l 1,2,-1
 30 408 l 1,3,-1
 30 707 l 1,0,-1
214 707 m 1,4,-1
 330 707 l 1,5,-1
 330 408 l 1,6,-1
 214 408 l 1,7,-1
 214 707 l 1,4,-1
EndSplineSet
EndChar

StartChar: numbersign
Encoding: 35 35 6
Width: 473
GlyphClass: 2
Flags: W
LayerCount: 2
Fore
SplineSet
378 420 m 1,0,-1
 366 302 l 1,1,-1
 439 302 l 1,2,-1
 439 218 l 1,3,-1
 356 218 l 1,4,-1
 334 0 l 1,5,-1
 241 0 l 1,6,-1
 263 218 l 1,7,-1
 172 218 l 1,8,-1
 150 0 l 1,9,-1
 55 0 l 1,10,-1
 78 218 l 1,11,-1
 14 218 l 1,12,-1
 14 302 l 1,13,-1
 87 302 l 1,14,-1
 99 420 l 1,15,-1
 35 420 l 1,16,-1
 35 504 l 1,17,-1
 108 504 l 1,18,-1
 129 707 l 1,19,-1
 222 707 l 1,20,-1
 202 504 l 1,21,-1
 293 504 l 1,22,-1
 313 707 l 1,23,-1
 408 707 l 1,24,-1
 386 504 l 1,25,-1
 459 504 l 1,26,-1
 459 420 l 1,27,-1
 378 420 l 1,0,-1
284 420 m 1,28,-1
 193 420 l 1,29,-1
 180 302 l 1,30,-1
 271 302 l 1,31,-1
 284 420 l 1,28,-1
EndSplineSet
EndChar

StartChar: dollar
Encoding: 36 36 7
Width: 438
GlyphClass: 2
Flags: W
LayerCount: 2
Fore
SplineSet
352 95.5 m 128,-1,1
 319 49 319 49 259 35 c 1,2,-1
 259 -46 l 1,3,-1
 172 -46 l 1,4,-1
 172 29 l 1,5,6
 98 36 98 36 60 85 c 128,-1,7
 22 134 22 134 19 218 c 1,8,-1
 137 218 l 1,9,10
 139 176 139 176 155 155 c 128,-1,11
 171 134 171 134 202 134 c 0,12,13
 234 134 234 134 248.5 153 c 128,-1,14
 263 172 263 172 263 213 c 0,15,16
 263 245 263 245 246.5 264.5 c 128,-1,17
 230 284 230 284 193 301 c 2,18,-1
 142 324 l 2,19,20
 80 352 80 352 53 392 c 128,-1,21
 26 432 26 432 26 502 c 0,22,23
 26 576 26 576 65 622.5 c 128,-1,24
 104 669 104 669 172 679 c 1,25,-1
 172 773 l 1,26,-1
 259 773 l 1,27,-1
 259 675 l 1,28,29
 314 660 314 660 345 613.5 c 128,-1,30
 376 567 376 567 378 494 c 1,31,-1
 263 494 l 1,32,33
 262 534 262 534 249.5 553.5 c 128,-1,34
 237 573 237 573 206 573 c 0,35,36
 148 573 148 573 147 508 c 0,37,38
 147 477 147 477 161.5 458.5 c 128,-1,39
 176 440 176 440 207 428 c 2,40,-1
 255 409 l 2,41,42
 325 380 325 380 355 335.5 c 128,-1,43
 385 291 385 291 385 216 c 0,44,0
 385 142 385 142 352 95.5 c 128,-1,1
91 707 m 1024,45,-1
EndSplineSet
EndChar

StartChar: percent
Encoding: 37 37 8
Width: 780
GlyphClass: 2
Flags: W
LayerCount: 2
Fore
SplineSet
481 715 m 1,0,-1
 565 715 l 1,1,-1
 299 0 l 1,2,-1
 215 0 l 1,3,-1
 481 715 l 1,0,-1
32 387 m 2,5,-1
 32 598 l 2,6,7
 32 713 32 713 145 713 c 256,8,9
 259 713 259 713 259 598 c 2,10,-1
 259 387 l 2,11,12
 259 272 259 272 145 272 c 256,13,4
 32 272 32 272 32 387 c 2,5,-1
169.5 359 m 128,-1,15
 176 370 176 370 176 399 c 2,16,-1
 176 586 l 2,17,18
 176 617 176 617 169.5 627 c 128,-1,19
 163 637 163 637 145 637 c 256,20,21
 128 637 128 637 122 626.5 c 128,-1,22
 116 616 116 616 116 586 c 2,23,-1
 116 399 l 2,24,25
 116 369 116 369 122 358.5 c 128,-1,26
 128 348 128 348 145 348 c 256,27,14
 163 348 163 348 169.5 359 c 128,-1,15
521 108 m 2,29,-1
 521 318 l 2,30,31
 521 433 521 433 635 433 c 256,32,33
 749 433 749 433 749 318 c 2,34,-1
 749 108 l 2,35,36
 749 -7 749 -7 635 -7 c 256,37,28
 521 -7 521 -7 521 108 c 2,29,-1
659 79.5 m 128,-1,39
 666 90 666 90 666 120 c 2,40,-1
 666 306 l 2,41,42
 666 337 666 337 659 347 c 128,-1,43
 652 357 652 357 635 357 c 256,44,45
 618 357 618 357 611.5 347 c 128,-1,46
 605 337 605 337 605 306 c 2,47,-1
 605 120 l 2,48,49
 605 90 605 90 611 79.5 c 128,-1,50
 617 69 617 69 635 69 c 256,51,38
 652 69 652 69 659 79.5 c 128,-1,39
EndSplineSet
EndChar

StartChar: ampersand
Encoding: 38 38 9
Width: 526
GlyphClass: 2
Flags: W
LayerCount: 2
Fore
SplineSet
450 109.5 m 128,-1,1
 460 103 460 103 474 103 c 2,2,-1
 486 103 l 1,3,-1
 486 0 l 1,4,-1
 437 0 l 2,5,6
 403 0 403 0 385.5 12.5 c 128,-1,7
 368 25 368 25 346 58 c 1,8,9
 317 21 317 21 281.5 5.5 c 128,-1,10
 246 -10 246 -10 199 -10 c 0,11,12
 127 -10 127 -10 83 35 c 128,-1,13
 39 80 39 80 39 155 c 0,14,15
 39 208 39 208 65 259.5 c 128,-1,16
 91 311 91 311 153 377 c 1,17,18
 113 443 113 443 96 482 c 128,-1,19
 79 521 79 521 79 561 c 0,20,21
 79 631 79 631 123 674 c 128,-1,22
 167 717 167 717 238 717 c 0,23,24
 308 717 308 717 351.5 674 c 128,-1,25
 395 631 395 631 395 561 c 0,26,27
 395 516 395 516 371.5 469 c 128,-1,28
 348 422 348 422 293 362 c 1,29,-1
 355 258 l 1,30,-1
 402 334 l 1,31,-1
 487 275 l 1,32,-1
 414 161 l 1,33,-1
 432 130 l 2,34,0
 440 116 440 116 450 109.5 c 128,-1,1
204.5 609 m 128,-1,36
 193 594 193 594 193 567 c 0,37,38
 193 549 193 549 201.5 525 c 128,-1,39
 210 501 210 501 233 461 c 1,40,41
 262 494 262 494 272 517 c 128,-1,42
 282 540 282 540 282 567 c 256,43,44
 282 595 282 595 270 609.5 c 128,-1,45
 258 624 258 624 238 624 c 0,46,35
 216 624 216 624 204.5 609 c 128,-1,36
250.5 110.5 m 128,-1,48
 268 122 268 122 290 152 c 1,49,-1
 211 281 l 1,50,51
 181 247 181 247 169.5 221 c 128,-1,52
 158 195 158 195 158 167 c 0,53,54
 158 134 158 134 172.5 116.5 c 128,-1,55
 187 99 187 99 213 99 c 0,56,47
 233 99 233 99 250.5 110.5 c 128,-1,48
EndSplineSet
EndChar

StartChar: quotesingle
Encoding: 39 39 10
Width: 175
GlyphClass: 2
Flags: W
LayerCount: 2
Fore
SplineSet
30 707 m 1,0,-1
 145 707 l 1,1,-1
 145 408 l 1,2,-1
 30 408 l 1,3,-1
 30 707 l 1,0,-1
EndSplineSet
EndChar

StartChar: parenleft
Encoding: 40 40 11
Width: 278
GlyphClass: 2
Flags: W
LayerCount: 2
Fore
SplineSet
64 116.5 m 128,-1,1
 39 224 39 224 39 336 c 256,2,3
 39 448 39 448 64 555.5 c 128,-1,4
 89 663 89 663 138 758 c 1,5,-1
 240 758 l 1,6,7
 199 659 199 659 177.5 550.5 c 128,-1,8
 156 442 156 442 156 336 c 256,9,10
 156 230 156 230 177.5 121.5 c 128,-1,11
 199 13 199 13 240 -86 c 1,12,-1
 138 -86 l 1,13,0
 89 9 89 9 64 116.5 c 128,-1,1
EndSplineSet
Substitution2: "'rtla' Right to Left Alternates lookup 0 subtable" parenright
EndChar

StartChar: parenright
Encoding: 41 41 12
Width: 278
GlyphClass: 2
Flags: W
LayerCount: 2
Fore
SplineSet
101.5 121 m 128,-1,1
 123 229 123 229 123 336 c 256,2,3
 123 442 123 442 101.5 550 c 128,-1,4
 80 658 80 658 39 758 c 1,5,-1
 140 758 l 1,6,7
 189 663 189 663 214.5 555 c 128,-1,8
 240 447 240 447 240 336 c 256,9,10
 240 224 240 224 214.5 116.5 c 128,-1,11
 189 9 189 9 140 -86 c 1,12,-1
 39 -86 l 1,13,0
 80 13 80 13 101.5 121 c 128,-1,1
EndSplineSet
Substitution2: "'rtla' Right to Left Alternates lookup 0 subtable" parenleft
EndChar

StartChar: asterisk
Encoding: 42 42 13
Width: 344
GlyphClass: 2
Flags: W
LayerCount: 2
Fore
SplineSet
138 503 m 1,0,-1
 70 463 l 1,1,-1
 40 515 l 1,2,-1
 111 556 l 1,3,-1
 39 598 l 1,4,-1
 70 652 l 1,5,-1
 138 612 l 1,6,-1
 138 707 l 1,7,-1
 206 707 l 1,8,-1
 206 610 l 1,9,-1
 274 650 l 1,10,-1
 304 598 l 1,11,-1
 232 557 l 1,12,-1
 305 514 l 1,13,-1
 274 461 l 1,14,-1
 206 501 l 1,15,-1
 206 401 l 1,16,-1
 138 401 l 1,17,-1
 138 503 l 1,0,-1
EndSplineSet
EndChar

StartChar: plus
Encoding: 43 43 14
Width: 429
GlyphClass: 2
Flags: W
LayerCount: 2
Fore
SplineSet
158 225 m 1,0,-1
 33 225 l 1,1,-1
 33 339 l 1,2,-1
 158 339 l 1,3,-1
 158 464 l 1,4,-1
 271 464 l 1,5,-1
 271 339 l 1,6,-1
 396 339 l 1,7,-1
 396 225 l 1,8,-1
 271 225 l 1,9,-1
 271 100 l 1,10,-1
 158 100 l 1,11,-1
 158 225 l 1,0,-1
EndSplineSet
EndChar

StartChar: comma
Encoding: 44 44 15
Width: 175
GlyphClass: 2
Flags: W
LayerCount: 2
Fore
SplineSet
30 136 m 1,0,-1
 145 136 l 1,1,-1
 145 -71 l 1,2,-1
 30 -164 l 1,3,-1
 30 136 l 1,0,-1
EndSplineSet
EndChar

StartChar: hyphen
Encoding: 45 45 16
Width: 359
GlyphClass: 2
Flags: W
LayerCount: 2
Fore
SplineSet
39 411 m 1,0,-1
 321 411 l 1,1,-1
 321 298 l 1,2,-1
 39 298 l 1,3,-1
 39 411 l 1,0,-1
EndSplineSet
EndChar

StartChar: period
Encoding: 46 46 17
Width: 179
GlyphClass: 2
Flags: W
LayerCount: 2
Fore
SplineSet
30 135 m 1,0,-1
 150 135 l 1,1,-1
 150 0 l 1,2,-1
 30 0 l 1,3,-1
 30 135 l 1,0,-1
EndSplineSet
EndChar

StartChar: slash
Encoding: 47 47 18
Width: 305
GlyphClass: 2
Flags: W
LayerCount: 2
Fore
SplineSet
172 715 m 1,0,-1
 266 715 l 1,1,-1
 132 -10 l 1,2,-1
 39 -10 l 1,3,-1
 172 715 l 1,0,-1
EndSplineSet
EndChar

StartChar: zero
Encoding: 48 48 19
Width: 418
GlyphClass: 2
Flags: W
LayerCount: 2
Fore
SplineSet
81 39.5 m 128,-1,1
 39 89 39 89 39 190 c 2,2,-1
 39 518 l 2,3,4
 39 618 39 618 81 668 c 128,-1,5
 123 718 123 718 209 718 c 0,6,7
 296 718 296 718 338 668 c 128,-1,8
 380 618 380 618 380 518 c 2,9,-1
 380 190 l 2,10,11
 380 89 380 89 338 39.5 c 128,-1,12
 296 -10 296 -10 209 -10 c 0,13,0
 123 -10 123 -10 81 39.5 c 128,-1,1
244.5 122.5 m 128,-1,15
 255 142 255 142 255 191 c 2,16,-1
 255 517 l 2,17,18
 255 565 255 565 244.5 584.5 c 128,-1,19
 234 604 234 604 209 604 c 256,20,21
 183 604 183 604 174 585 c 128,-1,22
 165 566 165 566 165 517 c 2,23,-1
 165 191 l 2,24,25
 165 142 165 142 174.5 122.5 c 128,-1,26
 184 103 184 103 209 103 c 0,27,14
 234 103 234 103 244.5 122.5 c 128,-1,15
EndSplineSet
EndChar

StartChar: one
Encoding: 49 49 20
Width: 300
GlyphClass: 2
Flags: W
LayerCount: 2
Fore
SplineSet
125 560 m 1,0,-1
 28 481 l 1,1,-1
 28 628 l 1,2,-1
 125 707 l 1,3,-1
 253 707 l 1,4,-1
 253 0 l 1,5,-1
 125 0 l 1,6,-1
 125 560 l 1,0,-1
EndSplineSet
Substitution2: "'sups' Superscript lookup 1 subtable" uni00B9
EndChar

StartChar: two
Encoding: 50 50 21
Width: 406
GlyphClass: 2
Flags: W
LayerCount: 2
Fore
SplineSet
35 110 m 1,0,-1
 214 399 l 2,1,2
 232 430 232 430 240 452 c 128,-1,3
 248 474 248 474 248 508 c 2,4,-1
 248 548 l 2,5,6
 248 604 248 604 204 604 c 0,7,8
 161 604 161 604 161 543 c 2,9,-1
 161 496 l 1,10,-1
 39 496 l 1,11,-1
 39 558 l 2,12,13
 39 631 39 631 85 674 c 128,-1,14
 131 717 131 717 207 717 c 256,15,16
 283 717 283 717 327.5 673 c 128,-1,17
 372 629 372 629 372 554 c 2,18,-1
 372 504 l 2,19,20
 372 458 372 458 359.5 423.5 c 128,-1,21
 347 389 347 389 321 346 c 2,22,-1
 175 114 l 1,23,-1
 372 114 l 1,24,-1
 372 0 l 1,25,-1
 35 0 l 1,26,-1
 35 110 l 1,0,-1
EndSplineSet
Substitution2: "'sups' Superscript lookup 1 subtable" uni00B2
EndChar

StartChar: three
Encoding: 51 51 22
Width: 408
GlyphClass: 2
Flags: W
LayerCount: 2
Fore
SplineSet
77 33.5 m 128,-1,1
 34 77 34 77 34 153 c 2,2,-1
 34 205 l 1,3,-1
 156 205 l 1,4,-1
 156 159 l 2,5,6
 156 104 156 104 200 103 c 0,7,8
 226 103 226 103 235 118.5 c 128,-1,9
 244 134 244 134 244 166 c 2,10,-1
 244 239 l 2,11,12
 244 277 244 277 233.5 292 c 128,-1,13
 223 307 223 307 193 307 c 2,14,-1
 166 307 l 1,15,-1
 166 420 l 1,16,-1
 195 420 l 2,17,18
 225 420 225 420 234.5 435 c 128,-1,19
 244 450 244 450 244 482 c 2,20,-1
 244 541 l 2,21,22
 244 573 244 573 234 588 c 128,-1,23
 224 603 224 603 200 603 c 0,24,25
 156 603 156 603 156 548 c 2,26,-1
 156 505 l 1,27,-1
 34 505 l 1,28,-1
 34 555 l 2,29,30
 34 630 34 630 78.5 673.5 c 128,-1,31
 123 717 123 717 202 717 c 0,32,33
 282 717 282 717 326 673 c 128,-1,34
 370 629 370 629 370 548 c 2,35,-1
 370 500 l 2,36,37
 370 449 370 449 354.5 418 c 128,-1,38
 339 387 339 387 299 369 c 1,39,40
 342 351 342 351 356 320 c 128,-1,41
 370 289 370 289 370 232 c 2,42,-1
 370 160 l 2,43,44
 370 80 370 80 325.5 35 c 128,-1,45
 281 -10 281 -10 201 -10 c 0,46,0
 120 -10 120 -10 77 33.5 c 128,-1,1
EndSplineSet
Substitution2: "'sups' Superscript lookup 1 subtable" uni00B3
EndChar

StartChar: four
Encoding: 52 52 23
Width: 437
GlyphClass: 2
Flags: W
LayerCount: 2
Fore
SplineSet
410 118 m 1,0,-1
 366 118 l 1,1,-1
 366 0 l 1,2,-1
 240 0 l 1,3,-1
 240 118 l 1,4,-1
 28 118 l 1,5,-1
 28 231 l 1,6,-1
 168 707 l 1,7,-1
 294 707 l 1,8,-1
 154 231 l 1,9,-1
 240 231 l 1,10,-1
 240 387 l 1,11,-1
 366 387 l 1,12,-1
 366 231 l 1,13,-1
 410 231 l 1,14,-1
 410 118 l 1,0,-1
EndSplineSet
EndChar

StartChar: five
Encoding: 53 53 24
Width: 415
GlyphClass: 2
Flags: W
LayerCount: 2
Fore
SplineSet
82.5 34 m 128,-1,1
 39 78 39 78 39 162 c 2,2,-1
 39 195 l 1,3,-1
 163 195 l 1,4,-1
 163 167 l 2,5,6
 163 133 163 133 173 117.5 c 128,-1,7
 183 102 183 102 207 102 c 256,8,9
 231 102 231 102 241 117.5 c 128,-1,10
 251 133 251 133 251 167 c 2,11,-1
 251 291 l 2,12,13
 251 351 251 351 207 351 c 0,14,15
 191 351 191 351 180.5 342.5 c 128,-1,16
 170 334 170 334 162 315 c 1,17,-1
 47 315 l 1,18,-1
 47 707 l 1,19,-1
 377 707 l 1,20,-1
 377 592 l 1,21,-1
 162 592 l 1,22,-1
 162 434 l 1,23,24
 192 461 192 461 242 461 c 0,25,26
 377 461 377 461 377 296 c 2,27,-1
 377 165 l 2,28,29
 377 78 377 78 333.5 34 c 128,-1,30
 290 -10 290 -10 208 -10 c 256,31,0
 126 -10 126 -10 82.5 34 c 128,-1,1
EndSplineSet
EndChar

StartChar: six
Encoding: 54 54 25
Width: 409
GlyphClass: 2
Flags: W
LayerCount: 2
Fore
SplineSet
78.5 34.5 m 128,-1,1
 35 79 35 79 35 163 c 2,2,-1
 35 268 l 2,3,4
 35 316 35 316 43 349 c 128,-1,5
 51 382 51 382 70 425 c 2,6,-1
 195 707 l 1,7,-1
 325 707 l 1,8,-1
 205 431 l 1,9,10
 221 438 221 438 244 438 c 0,11,12
 305 438 305 438 340 396.5 c 128,-1,13
 375 355 375 355 375 283 c 2,14,-1
 375 159 l 2,15,16
 375 79 375 79 330.5 34.5 c 128,-1,17
 286 -10 286 -10 205 -10 c 0,18,0
 122 -10 122 -10 78.5 34.5 c 128,-1,1
237.5 117.5 m 128,-1,20
 249 132 249 132 249 159 c 2,21,-1
 249 273 l 2,22,23
 249 327 249 327 205 328 c 0,24,25
 183 328 183 328 172 315 c 128,-1,26
 161 302 161 302 161 279 c 2,27,-1
 161 158 l 2,28,29
 161 104 161 104 205 103 c 0,30,19
 226 103 226 103 237.5 117.5 c 128,-1,20
EndSplineSet
EndChar

StartChar: seven
Encoding: 55 55 26
Width: 390
GlyphClass: 2
Flags: W
LayerCount: 2
Fore
SplineSet
367 707 m 1,0,-1
 367 593 l 1,1,-1
 194 0 l 1,2,-1
 68 0 l 1,3,-1
 241 593 l 1,4,-1
 24 593 l 1,5,-1
 24 707 l 1,6,-1
 367 707 l 1,0,-1
EndSplineSet
EndChar

StartChar: eight
Encoding: 56 56 27
Width: 419
GlyphClass: 2
Flags: W
LayerCount: 2
Fore
SplineSet
83 35.5 m 128,-1,1
 39 81 39 81 39 168 c 2,2,-1
 39 241 l 2,3,4
 39 331 39 331 99 370 c 1,5,6
 69 387 69 387 54 420 c 128,-1,7
 39 453 39 453 39 487 c 2,8,-1
 39 554 l 2,9,10
 39 629 39 629 85.5 673 c 128,-1,11
 132 717 132 717 210 717 c 0,12,13
 289 717 289 717 335 673 c 128,-1,14
 381 629 381 629 381 554 c 2,15,-1
 381 487 l 2,16,17
 381 452 381 452 365 419.5 c 128,-1,18
 349 387 349 387 321 370 c 1,19,20
 381 332 381 332 381 241 c 2,21,-1
 381 168 l 2,22,23
 381 81 381 81 336.5 35.5 c 128,-1,24
 292 -10 292 -10 210 -10 c 0,25,0
 127 -10 127 -10 83 35.5 c 128,-1,1
245 436 m 128,-1,27
 254 452 254 452 254 481 c 2,28,-1
 254 553 l 2,29,30
 254 578 254 578 242.5 591.5 c 128,-1,31
 231 605 231 605 210 605 c 256,32,33
 188 605 188 605 177 591.5 c 128,-1,34
 166 578 166 578 166 553 c 2,35,-1
 166 481 l 2,36,37
 166 451 166 451 175.5 435.5 c 128,-1,38
 185 420 185 420 210 420 c 0,39,26
 236 420 236 420 245 436 c 128,-1,27
245.5 117.5 m 128,-1,41
 254 134 254 134 254 167 c 2,42,-1
 254 250 l 2,43,44
 254 310 254 310 210 310 c 0,45,46
 185 310 185 310 175.5 294.5 c 128,-1,47
 166 279 166 279 166 250 c 2,48,-1
 166 167 l 2,49,50
 166 134 166 134 175 117.5 c 128,-1,51
 184 101 184 101 210 101 c 0,52,40
 237 101 237 101 245.5 117.5 c 128,-1,41
EndSplineSet
EndChar

StartChar: nine
Encoding: 57 57 28
Width: 409
GlyphClass: 2
Flags: W
LayerCount: 2
Fore
SplineSet
205 275 m 1,0,1
 191 268 191 268 166 268 c 0,2,3
 105 268 105 268 70 309.5 c 128,-1,4
 35 351 35 351 35 424 c 2,5,-1
 35 548 l 2,6,7
 35 628 35 628 79.5 672.5 c 128,-1,8
 124 717 124 717 206 717 c 0,9,10
 289 717 289 717 332 672.5 c 128,-1,11
 375 628 375 628 375 544 c 2,12,-1
 375 438 l 2,13,14
 375 390 375 390 367 357 c 128,-1,15
 359 324 359 324 341 282 c 2,16,-1
 215 0 l 1,17,-1
 85 0 l 1,18,-1
 205 275 l 1,0,1
237.5 391.5 m 128,-1,20
 249 404 249 404 249 428 c 2,21,-1
 249 549 l 2,22,23
 249 603 249 603 206 603 c 0,24,25
 161 603 161 603 161 548 c 2,26,-1
 161 433 l 2,27,28
 161 379 161 379 206 379 c 0,29,19
 226 379 226 379 237.5 391.5 c 128,-1,20
EndSplineSet
EndChar

StartChar: colon
Encoding: 58 58 29
Width: 179
GlyphClass: 2
Flags: W
LayerCount: 2
Fore
SplineSet
30 135 m 1,0,-1
 150 135 l 1,1,-1
 150 0 l 1,2,-1
 30 0 l 1,3,-1
 30 135 l 1,0,-1
30 481 m 1,4,-1
 150 481 l 1,5,-1
 150 346 l 1,6,-1
 30 346 l 1,7,-1
 30 481 l 1,4,-1
EndSplineSet
EndChar

StartChar: semicolon
Encoding: 59 59 30
Width: 179
GlyphClass: 2
Flags: W
LayerCount: 2
Fore
SplineSet
30 481 m 1,0,-1
 150 481 l 1,1,-1
 150 346 l 1,2,-1
 30 346 l 1,3,-1
 30 481 l 1,0,-1
34 136 m 1,4,-1
 150 136 l 1,5,-1
 150 -71 l 1,6,-1
 34 -164 l 1,7,-1
 34 136 l 1,4,-1
EndSplineSet
EndChar

StartChar: less
Encoding: 60 60 31
Width: 429
GlyphClass: 2
Flags: W
LayerCount: 2
Fore
SplineSet
33 238 m 1,0,-1
 33 328 l 1,1,-1
 383 469 l 1,2,-1
 383 368 l 1,3,-1
 160 283 l 1,4,-1
 383 198 l 1,5,-1
 383 96 l 1,6,-1
 33 238 l 1,0,-1
EndSplineSet
Substitution2: "'rtla' Right to Left Alternates lookup 0 subtable" greater
EndChar

StartChar: equal
Encoding: 61 61 32
Width: 429
GlyphClass: 2
Flags: W
LayerCount: 2
Fore
SplineSet
33 429 m 1,0,-1
 383 429 l 1,1,-1
 383 333 l 1,2,-1
 33 333 l 1,3,-1
 33 429 l 1,0,-1
33 232 m 1,4,-1
 383 232 l 1,5,-1
 383 135 l 1,6,-1
 33 135 l 1,7,-1
 33 232 l 1,4,-1
EndSplineSet
EndChar

StartChar: greater
Encoding: 62 62 33
Width: 429
GlyphClass: 2
Flags: W
LayerCount: 2
Fore
SplineSet
33 198 m 1,0,-1
 255 283 l 1,1,-1
 33 368 l 1,2,-1
 33 469 l 1,3,-1
 383 328 l 1,4,-1
 383 238 l 1,5,-1
 33 96 l 1,6,-1
 33 198 l 1,0,-1
EndSplineSet
Substitution2: "'rtla' Right to Left Alternates lookup 0 subtable" less
EndChar

StartChar: question
Encoding: 63 63 34
Width: 385
GlyphClass: 2
Flags: W
LayerCount: 2
Fore
SplineSet
132 247 m 2,0,1
 132 292 132 292 138.5 318.5 c 128,-1,2
 145 345 145 345 173 389 c 2,3,-1
 209 446 l 2,4,5
 225 472 225 472 231 492 c 128,-1,6
 237 512 237 512 237 544 c 0,7,8
 237 609 237 609 188 608 c 0,9,10
 156 608 156 608 147.5 585.5 c 128,-1,11
 139 563 139 563 139 509 c 1,12,-1
 20 509 l 1,13,14
 20 613 20 613 60.5 664.5 c 128,-1,15
 101 716 101 716 189 716 c 0,16,17
 267 716 267 716 312.5 671.5 c 128,-1,18
 358 627 358 627 358 547 c 0,19,20
 358 507 358 507 349 476 c 128,-1,21
 340 445 340 445 312 404 c 2,22,-1
 272 346 l 2,23,24
 254 320 254 320 249.5 301 c 128,-1,25
 245 282 245 282 245 248 c 2,26,-1
 245 203 l 1,27,-1
 132 203 l 1,28,-1
 132 247 l 2,0,1
132 130 m 1,29,-1
 245 130 l 1,30,-1
 245 0 l 1,31,-1
 132 0 l 1,32,-1
 132 130 l 1,29,-1
EndSplineSet
EndChar

StartChar: at
Encoding: 64 64 35
Width: 731
GlyphClass: 2
Flags: W
LayerCount: 2
Fore
SplineSet
191 -96 m 128,-1,1
 118 -55 118 -55 78.5 22 c 128,-1,2
 39 99 39 99 39 204 c 2,3,-1
 39 379 l 2,4,5
 39 482 39 482 79.5 559 c 128,-1,6
 120 636 120 636 193.5 677.5 c 128,-1,7
 267 719 267 719 366 719 c 256,8,9
 464 719 464 719 538 677.5 c 128,-1,10
 612 636 612 636 652 559.5 c 128,-1,11
 692 483 692 483 692 383 c 2,12,-1
 692 221 l 2,13,14
 692 141 692 141 656 99 c 128,-1,15
 620 57 620 57 551 57 c 0,16,17
 508 57 508 57 476.5 75 c 128,-1,18
 445 93 445 93 429 126 c 1,19,20
 417 90 417 90 393 73.5 c 128,-1,21
 369 57 369 57 328 57 c 0,22,23
 272 57 272 57 246 95 c 128,-1,24
 220 133 220 133 220 211 c 2,25,-1
 220 373 l 2,26,27
 220 443 220 443 244.5 479 c 128,-1,28
 269 515 269 515 325 515 c 0,29,30
 353 515 353 515 372 504 c 128,-1,31
 391 493 391 493 404 468 c 1,32,-1
 404 507 l 1,33,-1
 512 507 l 1,34,-1
 512 197 l 2,35,36
 512 173 512 173 523 161.5 c 128,-1,37
 534 150 534 150 552 150 c 0,38,39
 575 150 575 150 583.5 165 c 128,-1,40
 592 180 592 180 592 207 c 2,41,-1
 592 392 l 2,42,43
 592 504 592 504 533.5 564.5 c 128,-1,44
 475 625 475 625 366 625 c 0,45,46
 254 625 254 625 197.5 563 c 128,-1,47
 141 501 141 501 141 378 c 2,48,-1
 141 214 l 2,49,50
 141 -43 141 -43 366 -43 c 0,51,52
 416 -43 416 -43 453 -31.5 c 128,-1,53
 490 -20 490 -20 528 6 c 1,54,-1
 581 -68 l 1,55,56
 532 -104 532 -104 479 -120.5 c 128,-1,57
 426 -137 426 -137 366 -137 c 0,58,0
 264 -137 264 -137 191 -96 c 128,-1,1
397.5 167.5 m 128,-1,60
 406 183 406 183 406 211 c 2,61,-1
 406 368 l 2,62,63
 406 421 406 421 366 421 c 0,64,65
 327 421 327 421 327 368 c 2,66,-1
 327 208 l 2,67,68
 327 180 327 180 335.5 166 c 128,-1,69
 344 152 344 152 366 152 c 0,70,59
 389 152 389 152 397.5 167.5 c 128,-1,60
EndSplineSet
EndChar

StartChar: A
Encoding: 65 65 36
Width: 496
GlyphClass: 2
Flags: W
LayerCount: 2
Fore
SplineSet
331 137 m 1,0,-1
 166 137 l 1,1,-1
 137 0 l 1,2,-1
 6 0 l 1,3,-1
 187 707 l 1,4,-1
 310 707 l 1,5,-1
 490 0 l 1,6,-1
 359 0 l 1,7,-1
 331 137 l 1,0,-1
308 250 m 1,8,-1
 249 537 l 1,9,-1
 189 250 l 1,10,-1
 308 250 l 1,8,-1
EndSplineSet
EndChar

StartChar: B
Encoding: 66 66 37
Width: 466
GlyphClass: 2
Flags: W
LayerCount: 2
Fore
SplineSet
411.5 310 m 128,-1,1
 428 270 428 270 428 205 c 0,2,3
 428 97 428 97 384 48.5 c 128,-1,4
 340 0 340 0 234 0 c 2,5,-1
 43 0 l 1,6,-1
 43 707 l 1,7,-1
 234 707 l 2,8,9
 337 707 337 707 381.5 661 c 128,-1,10
 426 615 426 615 426 516 c 0,11,12
 426 464 426 464 408.5 427 c 128,-1,13
 391 390 391 390 349 371 c 1,14,0
 395 350 395 350 411.5 310 c 128,-1,1
168 594 m 1,15,-1
 168 423 l 1,16,-1
 221 423 l 2,17,18
 265 423 265 423 282.5 443 c 128,-1,19
 300 463 300 463 300 508 c 0,20,21
 300 555 300 555 282.5 574.5 c 128,-1,22
 265 594 265 594 221 594 c 2,23,-1
 168 594 l 1,15,-1
284.5 136 m 128,-1,25
 302 159 302 159 302 214 c 0,26,27
 302 267 302 267 283 290.5 c 128,-1,28
 264 314 264 314 220 314 c 2,29,-1
 168 314 l 1,30,-1
 168 113 l 1,31,-1
 220 113 l 2,32,24
 267 113 267 113 284.5 136 c 128,-1,25
EndSplineSet
EndChar

StartChar: C
Encoding: 67 67 38
Width: 479
GlyphClass: 2
Flags: W
LayerCount: 2
Fore
SplineSet
92 43.5 m 128,-1,1
 39 95 39 95 39 195 c 2,2,-1
 39 513 l 2,3,4
 39 613 39 613 95.5 665 c 128,-1,5
 152 717 152 717 244 717 c 0,6,7
 332 717 332 717 386 665.5 c 128,-1,8
 440 614 440 614 440 510 c 2,9,-1
 440 488 l 1,10,-1
 314 488 l 1,11,-1
 314 509 l 2,12,13
 314 557 314 557 294 580 c 128,-1,14
 274 603 274 603 241 603 c 0,15,16
 201 603 201 603 183 575.5 c 128,-1,17
 165 548 165 548 165 493 c 2,18,-1
 165 209 l 2,19,20
 165 106 165 106 241 105 c 0,21,22
 275 105 275 105 294.5 129 c 128,-1,23
 314 153 314 153 314 199 c 2,24,-1
 314 217 l 1,25,-1
 439 217 l 1,26,-1
 439 198 l 2,27,28
 439 96 439 96 382.5 44 c 128,-1,29
 326 -8 326 -8 237 -8 c 0,30,0
 145 -8 145 -8 92 43.5 c 128,-1,1
EndSplineSet
EndChar

StartChar: D
Encoding: 68 68 39
Width: 474
GlyphClass: 2
Flags: W
LayerCount: 2
Fore
SplineSet
43 707 m 1,0,-1
 239 707 l 2,1,2
 328 707 328 707 381.5 655.5 c 128,-1,3
 435 604 435 604 435 504 c 2,4,-1
 435 203 l 2,5,6
 435 104 435 104 379 52 c 128,-1,7
 323 0 323 0 232 0 c 2,8,-1
 43 0 l 1,9,-1
 43 707 l 1,0,-1
236 113 m 2,10,11
 272 113 272 113 290.5 140.5 c 128,-1,12
 309 168 309 168 309 217 c 2,13,-1
 309 482 l 2,14,15
 309 536 309 536 290.5 564.5 c 128,-1,16
 272 593 272 593 236 593 c 2,17,-1
 168 593 l 1,18,-1
 168 113 l 1,19,-1
 236 113 l 2,10,11
EndSplineSet
EndChar

StartChar: E
Encoding: 69 69 40
Width: 384
GlyphClass: 2
Flags: W
LayerCount: 2
Fore
SplineSet
168 593 m 1,0,-1
 168 416 l 1,1,-1
 332 416 l 1,2,-1
 332 303 l 1,3,-1
 168 303 l 1,4,-1
 168 113 l 1,5,-1
 358 113 l 1,6,-1
 358 0 l 1,7,-1
 43 0 l 1,8,-1
 43 707 l 1,9,-1
 358 707 l 1,10,-1
 358 593 l 1,11,-1
 168 593 l 1,0,-1
EndSplineSet
EndChar

StartChar: F
Encoding: 70 70 41
Width: 379
GlyphClass: 2
Flags: W
LayerCount: 2
Fore
SplineSet
169 593 m 1,0,-1
 169 413 l 1,1,-1
 333 413 l 1,2,-1
 333 299 l 1,3,-1
 169 299 l 1,4,-1
 169 0 l 1,5,-1
 43 0 l 1,6,-1
 43 707 l 1,7,-1
 358 707 l 1,8,-1
 358 593 l 1,9,-1
 169 593 l 1,0,-1
EndSplineSet
EndChar

StartChar: G
Encoding: 71 71 42
Width: 479
GlyphClass: 2
Flags: W
LayerCount: 2
Fore
SplineSet
92 43.5 m 128,-1,1
 39 95 39 95 39 195 c 2,2,-1
 39 513 l 2,3,4
 39 613 39 613 95.5 665 c 128,-1,5
 152 717 152 717 244 717 c 0,6,7
 332 717 332 717 386 666.5 c 128,-1,8
 440 616 440 616 440 518 c 2,9,-1
 440 497 l 1,10,-1
 314 497 l 1,11,-1
 314 518 l 2,12,13
 314 559 314 559 293.5 581 c 128,-1,14
 273 603 273 603 241 603 c 0,15,16
 201 603 201 603 183 575.5 c 128,-1,17
 165 548 165 548 165 493 c 2,18,-1
 165 209 l 2,19,20
 165 106 165 106 241 105 c 0,21,22
 278 105 278 105 296 130.5 c 128,-1,23
 314 156 314 156 314 203 c 2,24,-1
 314 278 l 1,25,-1
 240 278 l 1,26,-1
 240 377 l 1,27,-1
 440 377 l 1,28,-1
 440 195 l 2,29,30
 440 97 440 97 383.5 44.5 c 128,-1,31
 327 -8 327 -8 237 -8 c 0,32,0
 145 -8 145 -8 92 43.5 c 128,-1,1
EndSplineSet
EndChar

StartChar: H
Encoding: 72 72 43
Width: 471
GlyphClass: 2
Flags: W
LayerCount: 2
Fore
SplineSet
428 707 m 1,0,-1
 428 0 l 1,1,-1
 302 0 l 1,2,-1
 302 303 l 1,3,-1
 169 303 l 1,4,-1
 169 0 l 1,5,-1
 43 0 l 1,6,-1
 43 707 l 1,7,-1
 169 707 l 1,8,-1
 169 416 l 1,9,-1
 302 416 l 1,10,-1
 302 707 l 1,11,-1
 428 707 l 1,0,-1
EndSplineSet
EndChar

StartChar: I
Encoding: 73 73 44
Width: 219
GlyphClass: 2
Flags: W
LayerCount: 2
Fore
SplineSet
47 707 m 1,0,-1
 172 707 l 1,1,-1
 172 0 l 1,2,-1
 47 0 l 1,3,-1
 47 707 l 1,0,-1
EndSplineSet
EndChar

StartChar: J
Encoding: 74 74 45
Width: 272
GlyphClass: 2
Flags: W
LayerCount: 2
Fore
SplineSet
17 114 m 1,0,-1
 34 114 l 2,1,2
 100 114 100 114 99 182 c 2,3,-1
 99 707 l 1,4,-1
 225 707 l 1,5,-1
 225 168 l 2,6,7
 225 0 225 0 42 0 c 2,8,-1
 17 0 l 1,9,-1
 17 114 l 1,0,-1
EndSplineSet
EndChar

StartChar: K
Encoding: 75 75 46
Width: 471
GlyphClass: 2
Flags: W
LayerCount: 2
Fore
SplineSet
225 273 m 1,0,-1
 168 160 l 1,1,-1
 168 0 l 1,2,-1
 43 0 l 1,3,-1
 43 707 l 1,4,-1
 168 707 l 1,5,-1
 168 374 l 1,6,-1
 318 707 l 1,7,-1
 444 707 l 1,8,-1
 297 416 l 1,9,-1
 467 0 l 1,10,-1
 333 0 l 1,11,-1
 225 273 l 1,0,-1
EndSplineSet
EndChar

StartChar: L
Encoding: 76 76 47
Width: 375
GlyphClass: 2
Flags: W
LayerCount: 2
Fore
SplineSet
43 707 m 1,0,-1
 169 707 l 1,1,-1
 169 113 l 1,2,-1
 358 113 l 1,3,-1
 358 0 l 1,4,-1
 43 0 l 1,5,-1
 43 707 l 1,0,-1
EndSplineSet
EndChar

StartChar: M
Encoding: 77 77 48
Width: 584
GlyphClass: 2
Flags: W
LayerCount: 2
Fore
SplineSet
542 707 m 1,0,-1
 542 0 l 1,1,-1
 416 0 l 1,2,-1
 416 414 l 1,3,-1
 326 137 l 1,4,-1
 258 137 l 1,5,-1
 169 411 l 1,6,-1
 169 0 l 1,7,-1
 43 0 l 1,8,-1
 43 707 l 1,9,-1
 169 707 l 1,10,-1
 292 334 l 1,11,-1
 416 707 l 1,12,-1
 542 707 l 1,0,-1
EndSplineSet
EndChar

StartChar: N
Encoding: 78 78 49
Width: 485
GlyphClass: 2
Flags: W
LayerCount: 2
Fore
SplineSet
442 707 m 1,0,-1
 442 0 l 1,1,-1
 316 0 l 1,2,-1
 169 377 l 1,3,-1
 169 0 l 1,4,-1
 43 0 l 1,5,-1
 43 707 l 1,6,-1
 169 707 l 1,7,-1
 316 313 l 1,8,-1
 316 707 l 1,9,-1
 442 707 l 1,0,-1
EndSplineSet
EndChar

StartChar: O
Encoding: 79 79 50
Width: 479
GlyphClass: 2
Flags: W
LayerCount: 2
Fore
SplineSet
92 43.5 m 128,-1,1
 39 95 39 95 39 195 c 2,2,-1
 39 513 l 2,3,4
 39 613 39 613 95.5 665 c 128,-1,5
 152 717 152 717 244 717 c 0,6,7
 333 717 333 717 386.5 665 c 128,-1,8
 440 613 440 613 440 513 c 2,9,-1
 440 195 l 2,10,11
 440 97 440 97 383.5 44.5 c 128,-1,12
 327 -8 327 -8 237 -8 c 0,13,0
 145 -8 145 -8 92 43.5 c 128,-1,1
295 132.5 m 128,-1,15
 314 160 314 160 314 209 c 2,16,-1
 314 493 l 2,17,18
 314 547 314 547 296 575 c 128,-1,19
 278 603 278 603 241 603 c 0,20,21
 201 603 201 603 183 575.5 c 128,-1,22
 165 548 165 548 165 493 c 2,23,-1
 165 209 l 2,24,25
 165 106 165 106 241 105 c 0,26,14
 276 105 276 105 295 132.5 c 128,-1,15
EndSplineSet
EndChar

StartChar: P
Encoding: 80 80 51
Width: 444
GlyphClass: 2
Flags: W
LayerCount: 2
Fore
SplineSet
382.5 651.5 m 128,-1,1
 427 596 427 596 427 484 c 0,2,3
 427 371 427 371 381.5 316 c 128,-1,4
 336 261 336 261 233 261 c 2,5,-1
 168 261 l 1,6,-1
 168 0 l 1,7,-1
 43 0 l 1,8,-1
 43 707 l 1,9,-1
 233 707 l 2,10,0
 338 707 338 707 382.5 651.5 c 128,-1,1
285 401.5 m 128,-1,12
 301 428 301 428 301 484 c 256,13,14
 301 540 301 540 285 567 c 128,-1,15
 269 594 269 594 229 594 c 2,16,-1
 168 594 l 1,17,-1
 168 375 l 1,18,-1
 229 375 l 2,19,11
 269 375 269 375 285 401.5 c 128,-1,12
EndSplineSet
EndChar

StartChar: Q
Encoding: 81 81 52
Width: 479
GlyphClass: 2
Flags: W
LayerCount: 2
Fore
SplineSet
415.5 86.5 m 128,-1,1
 391 42 391 42 348 18 c 1,2,-1
 394 -110 l 1,3,-1
 288 -148 l 1,4,-1
 238 -8 l 1,5,-1
 237 -8 l 2,6,7
 146 -8 146 -8 92.5 43.5 c 128,-1,8
 39 95 39 95 39 195 c 2,9,-1
 39 513 l 2,10,11
 39 613 39 613 95.5 665 c 128,-1,12
 152 717 152 717 244 717 c 0,13,14
 333 717 333 717 386.5 665 c 128,-1,15
 440 613 440 613 440 513 c 2,16,-1
 440 195 l 2,17,0
 440 131 440 131 415.5 86.5 c 128,-1,1
241 105 m 0,19,20
 277 105 277 105 295.5 132.5 c 128,-1,21
 314 160 314 160 314 209 c 2,22,-1
 314 493 l 2,23,24
 314 547 314 547 296 575 c 128,-1,25
 278 603 278 603 241 603 c 0,26,27
 201 603 201 603 183 575.5 c 128,-1,28
 165 548 165 548 165 493 c 2,29,-1
 165 209 l 2,30,18
 165 105 165 105 241 105 c 0,19,20
EndSplineSet
EndChar

StartChar: R
Encoding: 82 82 53
Width: 471
GlyphClass: 2
Flags: W
LayerCount: 2
Fore
SplineSet
229 284 m 1,0,-1
 169 284 l 1,1,-1
 169 0 l 1,2,-1
 43 0 l 1,3,-1
 43 707 l 1,4,-1
 236 707 l 2,5,6
 340 707 340 707 383.5 656.5 c 128,-1,7
 427 606 427 606 427 496 c 0,8,9
 427 425 427 425 407.5 378 c 128,-1,10
 388 331 388 331 344 307 c 1,11,-1
 450 0 l 1,12,-1
 318 0 l 1,13,-1
 229 284 l 1,0,-1
169 396 m 1,14,-1
 234 396 l 2,15,16
 272 396 272 396 286.5 421 c 128,-1,17
 301 446 301 446 301 496 c 256,18,19
 301 545 301 545 287 569.5 c 128,-1,20
 273 594 273 594 234 594 c 2,21,-1
 169 594 l 1,22,-1
 169 396 l 1,14,-1
EndSplineSet
EndChar

StartChar: S
Encoding: 83 83 54
Width: 436
GlyphClass: 2
Flags: W
LayerCount: 2
Fore
SplineSet
69.5 46 m 128,-1,1
 20 100 20 100 19 202 c 1,2,-1
 138 202 l 1,3,4
 140 150 140 150 159 125 c 128,-1,5
 178 100 178 100 215 100 c 256,6,7
 252 100 252 100 269 122.5 c 128,-1,8
 286 145 286 145 286 195 c 0,9,10
 286 236 286 236 267 260 c 128,-1,11
 248 284 248 284 203 304 c 2,12,-1
 155 326 l 2,13,14
 86 357 86 357 56 401.5 c 128,-1,15
 26 446 26 446 26 522 c 0,16,17
 26 611 26 611 77.5 664.5 c 128,-1,18
 129 718 129 718 217 718 c 0,19,20
 304 718 304 718 351.5 665 c 128,-1,21
 399 612 399 612 402 513 c 1,22,-1
 287 513 l 1,23,24
 286 561 286 561 270 585 c 128,-1,25
 254 609 254 609 217 609 c 0,26,27
 148 609 148 609 148 528 c 0,28,29
 148 491 148 491 165 469 c 128,-1,30
 182 447 182 447 222 430 c 2,31,-1
 268 410 l 2,32,33
 342 377 342 377 375.5 328 c 128,-1,34
 409 279 409 279 409 197 c 0,35,36
 409 99 409 99 357.5 45.5 c 128,-1,37
 306 -8 306 -8 212 -8 c 0,38,0
 119 -8 119 -8 69.5 46 c 128,-1,1
EndSplineSet
EndChar

StartChar: T
Encoding: 84 84 55
Width: 377
GlyphClass: 2
Flags: W
LayerCount: 2
Fore
SplineSet
374 593 m 1,0,-1
 252 593 l 1,1,-1
 252 0 l 1,2,-1
 127 0 l 1,3,-1
 127 593 l 1,4,-1
 4 593 l 1,5,-1
 4 707 l 1,6,-1
 374 707 l 1,7,-1
 374 593 l 1,0,-1
EndSplineSet
EndChar

StartChar: U
Encoding: 85 85 56
Width: 471
GlyphClass: 2
Flags: W
LayerCount: 2
Fore
SplineSet
136.5 16 m 128,-1,1
 93 40 93 40 68 84 c 128,-1,2
 43 128 43 128 43 185 c 2,3,-1
 43 707 l 1,4,-1
 169 707 l 1,5,-1
 169 188 l 2,6,7
 169 145 169 145 185.5 125 c 128,-1,8
 202 105 202 105 236 105 c 0,9,10
 303 105 303 105 302 188 c 2,11,-1
 302 707 l 1,12,-1
 428 707 l 1,13,-1
 428 185 l 2,14,15
 428 128 428 128 403.5 84 c 128,-1,16
 379 40 379 40 335 16 c 128,-1,17
 291 -8 291 -8 236 -8 c 256,18,0
 180 -8 180 -8 136.5 16 c 128,-1,1
EndSplineSet
EndChar

StartChar: V
Encoding: 86 86 57
Width: 459
GlyphClass: 2
Flags: W
LayerCount: 2
Fore
SplineSet
6 707 m 1,0,-1
 144 707 l 1,1,-1
 229 178 l 1,2,-1
 315 707 l 1,3,-1
 454 707 l 1,4,-1
 295 0 l 1,5,-1
 165 0 l 1,6,-1
 6 707 l 1,0,-1
EndSplineSet
EndChar

StartChar: W
Encoding: 87 87 58
Width: 690
GlyphClass: 2
Flags: W
LayerCount: 2
Fore
SplineSet
684 707 m 1,0,-1
 558 0 l 1,1,-1
 422 0 l 1,2,-1
 345 434 l 1,3,-1
 267 0 l 1,4,-1
 132 0 l 1,5,-1
 6 707 l 1,6,-1
 134 707 l 1,7,-1
 203 178 l 1,8,-1
 269 707 l 1,9,-1
 423 707 l 1,10,-1
 489 178 l 1,11,-1
 558 707 l 1,12,-1
 684 707 l 1,0,-1
EndSplineSet
EndChar

StartChar: X
Encoding: 88 88 59
Width: 424
GlyphClass: 2
Flags: W
LayerCount: 2
Fore
SplineSet
151 367 m 1,0,-1
 16 707 l 1,1,-1
 140 707 l 1,2,-1
 213 485 l 1,3,-1
 285 707 l 1,4,-1
 409 707 l 1,5,-1
 274 367 l 1,6,-1
 419 0 l 1,7,-1
 295 0 l 1,8,-1
 213 247 l 1,9,-1
 130 0 l 1,10,-1
 6 0 l 1,11,-1
 151 367 l 1,0,-1
EndSplineSet
EndChar

StartChar: Y
Encoding: 89 89 60
Width: 424
GlyphClass: 2
Flags: W
LayerCount: 2
Fore
SplineSet
275 275 m 1,0,-1
 275 0 l 1,1,-1
 150 0 l 1,2,-1
 150 278 l 1,3,-1
 6 707 l 1,4,-1
 144 707 l 1,5,-1
 212 436 l 1,6,-1
 280 707 l 1,7,-1
 419 707 l 1,8,-1
 275 275 l 1,0,-1
EndSplineSet
EndChar

StartChar: Z
Encoding: 90 90 61
Width: 367
GlyphClass: 2
Flags: W
LayerCount: 2
Fore
SplineSet
348 114 m 1,0,-1
 348 0 l 1,1,-1
 22 0 l 1,2,-1
 22 114 l 1,3,-1
 220 593 l 1,4,-1
 32 593 l 1,5,-1
 32 707 l 1,6,-1
 344 707 l 1,7,-1
 344 593 l 1,8,-1
 146 114 l 1,9,-1
 348 114 l 1,0,-1
EndSplineSet
EndChar

StartChar: bracketleft
Encoding: 91 91 62
Width: 289
GlyphClass: 2
Flags: W
LayerCount: 2
Fore
SplineSet
43 758 m 1,0,-1
 251 758 l 1,1,-1
 251 644 l 1,2,-1
 160 644 l 1,3,-1
 160 28 l 1,4,-1
 251 28 l 1,5,-1
 251 -86 l 1,6,-1
 43 -86 l 1,7,-1
 43 758 l 1,0,-1
EndSplineSet
Substitution2: "'rtla' Right to Left Alternates lookup 0 subtable" bracketright
EndChar

StartChar: backslash
Encoding: 92 92 63
Width: 305
GlyphClass: 2
Flags: W
LayerCount: 2
Fore
SplineSet
39 715 m 1,0,-1
 132 715 l 1,1,-1
 266 -10 l 1,2,-1
 172 -10 l 1,3,-1
 39 715 l 1,0,-1
EndSplineSet
EndChar

StartChar: bracketright
Encoding: 93 93 64
Width: 289
GlyphClass: 2
Flags: W
LayerCount: 2
Fore
SplineSet
39 28 m 1,0,-1
 129 28 l 1,1,-1
 129 644 l 1,2,-1
 39 644 l 1,3,-1
 39 758 l 1,4,-1
 247 758 l 1,5,-1
 247 -86 l 1,6,-1
 39 -86 l 1,7,-1
 39 28 l 1,0,-1
EndSplineSet
Substitution2: "'rtla' Right to Left Alternates lookup 0 subtable" bracketleft
EndChar

StartChar: asciicircum
Encoding: 94 94 65
Width: 429
GlyphClass: 2
Flags: W
LayerCount: 2
Fore
SplineSet
163 715 m 1,0,-1
 257 715 l 1,1,-1
 389 286 l 1,2,-1
 296 286 l 1,3,-1
 210 573 l 1,4,-1
 124 286 l 1,5,-1
 31 286 l 1,6,-1
 163 715 l 1,0,-1
EndSplineSet
EndChar

StartChar: underscore
Encoding: 95 95 66
Width: 435
GlyphClass: 2
Flags: W
LayerCount: 2
Fore
SplineSet
0 -49 m 1,0,-1
 435 -49 l 1,1,-1
 435 -120 l 1,2,-1
 0 -120 l 1,3,-1
 0 -49 l 1,0,-1
EndSplineSet
EndChar

StartChar: grave
Encoding: 96 96 67
Width: 512
GlyphClass: 2
Flags: W
LayerCount: 2
Fore
SplineSet
142 743 m 1,0,-1
 268 743 l 1,1,-1
 370 604 l 1,2,-1
 268 604 l 1,3,-1
 142 743 l 1,0,-1
EndSplineSet
EndChar

StartChar: a
Encoding: 97 97 68
Width: 414
GlyphClass: 2
Flags: W
LayerCount: 2
Fore
SplineSet
329.5 502.5 m 128,-1,1
 373 456 373 456 373 377 c 2,2,-1
 373 0 l 1,3,-1
 262 0 l 1,4,-1
 262 45 l 1,5,6
 240 17 240 17 220 4.5 c 128,-1,7
 200 -8 200 -8 167 -8 c 0,8,9
 99 -8 99 -8 65 36 c 128,-1,10
 31 80 31 80 31 159 c 0,11,12
 31 235 31 235 77 276 c 128,-1,13
 123 317 123 317 209 317 c 2,14,-1
 254 317 l 1,15,-1
 254 386 l 2,16,17
 254 415 254 415 241 429.5 c 128,-1,18
 228 444 228 444 204 444 c 0,19,20
 181 444 181 444 168 430 c 128,-1,21
 155 416 155 416 155 391 c 2,22,-1
 155 383 l 1,23,-1
 45 383 l 1,24,-1
 45 387 l 2,25,26
 45 467 45 467 90 508 c 128,-1,27
 135 549 135 549 207 549 c 0,28,0
 286 549 286 549 329.5 502.5 c 128,-1,1
239 113 m 128,-1,30
 254 131 254 131 254 162 c 2,31,-1
 254 234 l 1,32,-1
 223 234 l 2,33,34
 187 234 187 234 168.5 218 c 128,-1,35
 150 202 150 202 150 164 c 0,36,37
 150 130 150 130 163 112.5 c 128,-1,38
 176 95 176 95 202 95 c 0,39,29
 224 95 224 95 239 113 c 128,-1,30
EndSplineSet
EndChar

StartChar: b
Encoding: 98 98 69
Width: 419
GlyphClass: 2
Flags: W
LayerCount: 2
Fore
SplineSet
199 3 m 128,-1,1
 177 14 177 14 157 38 c 1,2,-1
 157 0 l 1,3,-1
 42 0 l 1,4,-1
 42 707 l 1,5,-1
 161 707 l 1,6,-1
 161 498 l 1,7,8
 175 523 175 523 198 536 c 128,-1,9
 221 549 221 549 252 549 c 0,10,11
 311 549 311 549 346 507 c 128,-1,12
 381 465 381 465 381 374 c 2,13,-1
 381 167 l 2,14,15
 381 76 381 76 344.5 34 c 128,-1,16
 308 -8 308 -8 250 -8 c 0,17,0
 221 -8 221 -8 199 3 c 128,-1,1
249.5 118.5 m 128,-1,19
 262 139 262 139 262 186 c 2,20,-1
 262 354 l 2,21,22
 262 400 262 400 249.5 421 c 128,-1,23
 237 442 237 442 211 442 c 256,24,25
 185 442 185 442 172 421 c 128,-1,26
 159 400 159 400 159 354 c 2,27,-1
 159 186 l 2,28,29
 159 98 159 98 211 98 c 0,30,18
 237 98 237 98 249.5 118.5 c 128,-1,19
EndSplineSet
EndChar

StartChar: c
Encoding: 99 99 70
Width: 416
GlyphClass: 2
Flags: W
LayerCount: 2
Fore
SplineSet
83 38 m 128,-1,1
 39 84 39 84 39 187 c 2,2,-1
 39 353 l 2,3,4
 39 456 39 456 83 502.5 c 128,-1,5
 127 549 127 549 211 549 c 0,6,7
 292 549 292 549 335 505 c 128,-1,8
 378 461 378 461 378 373 c 2,9,-1
 378 352 l 1,10,-1
 263 352 l 1,11,-1
 263 371 l 2,12,13
 263 407 263 407 249.5 424.5 c 128,-1,14
 236 442 236 442 211 442 c 0,15,16
 184 442 184 442 171 421 c 128,-1,17
 158 400 158 400 158 354 c 2,18,-1
 158 186 l 2,19,20
 158 140 158 140 171 119 c 128,-1,21
 184 98 184 98 210 98 c 256,22,23
 236 98 236 98 249.5 116 c 128,-1,24
 263 134 263 134 263 171 c 2,25,-1
 263 188 l 1,26,-1
 378 188 l 1,27,-1
 378 171 l 2,28,29
 378 81 378 81 335 36.5 c 128,-1,30
 292 -8 292 -8 211 -8 c 0,31,0
 127 -8 127 -8 83 38 c 128,-1,1
EndSplineSet
EndChar

StartChar: d
Encoding: 100 100 71
Width: 419
GlyphClass: 2
Flags: W
LayerCount: 2
Fore
SplineSet
75.5 34 m 128,-1,1
 39 76 39 76 39 167 c 2,2,-1
 39 374 l 2,3,4
 39 465 39 465 74.5 507 c 128,-1,5
 110 549 110 549 169 549 c 0,6,7
 199 549 199 549 222.5 535.5 c 128,-1,8
 246 522 246 522 260 498 c 1,9,-1
 260 707 l 1,10,-1
 378 707 l 1,11,-1
 378 0 l 1,12,-1
 264 0 l 1,13,-1
 264 38 l 1,14,15
 225 -8 225 -8 171 -8 c 0,16,0
 112 -8 112 -8 75.5 34 c 128,-1,1
262 186 m 2,18,-1
 262 354 l 2,19,20
 262 400 262 400 249 421 c 128,-1,21
 236 442 236 442 209 442 c 0,22,23
 183 442 183 442 170.5 421 c 128,-1,24
 158 400 158 400 158 354 c 2,25,-1
 158 186 l 2,26,27
 158 139 158 139 170.5 118.5 c 128,-1,28
 183 98 183 98 210 98 c 0,29,17
 262 98 262 98 262 186 c 2,18,-1
EndSplineSet
EndChar

StartChar: e
Encoding: 101 101 72
Width: 420
GlyphClass: 2
Flags: W
LayerCount: 2
Fore
SplineSet
158 228 m 1,0,-1
 158 179 l 2,1,2
 158 96 158 96 211 96 c 0,3,4
 263 96 263 96 263 165 c 2,5,-1
 263 170 l 1,6,-1
 378 170 l 1,7,-1
 378 164 l 2,8,9
 378 79 378 79 335 35.5 c 128,-1,10
 292 -8 292 -8 211 -8 c 0,11,12
 129 -8 129 -8 84 41 c 128,-1,13
 39 90 39 90 39 204 c 2,14,-1
 39 336 l 2,15,16
 39 447 39 447 81.5 498 c 128,-1,17
 124 549 124 549 208 549 c 0,18,19
 291 549 291 549 336.5 496.5 c 128,-1,20
 382 444 382 444 382 336 c 2,21,-1
 382 228 l 1,22,-1
 158 228 l 1,0,-1
171 421 m 128,-1,24
 158 400 158 400 158 354 c 2,25,-1
 158 314 l 1,26,-1
 263 314 l 1,27,-1
 263 354 l 2,28,29
 263 400 263 400 250 421 c 128,-1,30
 237 442 237 442 210 442 c 0,31,23
 184 442 184 442 171 421 c 128,-1,24
EndSplineSet
EndChar

StartChar: f
Encoding: 102 102 73
Width: 293
GlyphClass: 2
Flags: W
LayerCount: 2
Fore
SplineSet
212.5 609.5 m 128,-1,1
 200 596 200 596 200 563 c 2,2,-1
 200 541 l 1,3,-1
 272 541 l 1,4,-1
 272 458 l 1,5,-1
 200 458 l 1,6,-1
 200 0 l 1,7,-1
 82 0 l 1,8,-1
 82 458 l 1,9,-1
 28 458 l 1,10,-1
 28 541 l 1,11,-1
 82 541 l 1,12,-1
 82 571 l 2,13,14
 82 706 82 706 221 707 c 2,15,-1
 272 707 l 1,16,-1
 272 623 l 1,17,-1
 257 623 l 2,18,0
 225 623 225 623 212.5 609.5 c 128,-1,1
EndSplineSet
EndChar

StartChar: g
Encoding: 103 103 74
Width: 419
GlyphClass: 2
Flags: W
LayerCount: 2
Fore
SplineSet
92.5 -133 m 128,-1,1
 50 -94 50 -94 48 -18 c 1,2,-1
 159 -18 l 1,3,4
 159 -43 159 -43 172 -56.5 c 128,-1,5
 185 -70 185 -70 211 -70 c 256,6,7
 237 -70 237 -70 250.5 -53.5 c 128,-1,8
 264 -37 264 -37 264 -5 c 2,9,-1
 264 88 l 1,10,11
 225 42 225 42 171 42 c 0,12,13
 112 42 112 42 75.5 84 c 128,-1,14
 39 126 39 126 39 217 c 2,15,-1
 39 374 l 2,16,17
 39 465 39 465 74.5 507 c 128,-1,18
 110 549 110 549 169 549 c 0,19,20
 199 549 199 549 222.5 535.5 c 128,-1,21
 246 522 246 522 260 498 c 1,22,-1
 260 541 l 1,23,-1
 378 541 l 1,24,-1
 378 6 l 2,25,26
 378 -76 378 -76 333.5 -124 c 128,-1,27
 289 -172 289 -172 210 -172 c 0,28,0
 135 -172 135 -172 92.5 -133 c 128,-1,1
262 237 m 2,30,-1
 262 354 l 2,31,32
 262 400 262 400 249 421 c 128,-1,33
 236 442 236 442 209 442 c 0,34,35
 183 442 183 442 170.5 421 c 128,-1,36
 158 400 158 400 158 354 c 2,37,-1
 158 237 l 2,38,39
 158 190 158 190 170.5 169 c 128,-1,40
 183 148 183 148 210 148 c 0,41,29
 262 149 262 149 262 237 c 2,30,-1
EndSplineSet
EndChar

StartChar: h
Encoding: 104 104 75
Width: 419
GlyphClass: 2
Flags: W
LayerCount: 2
Fore
SplineSet
42 707 m 1,0,-1
 161 707 l 1,1,-1
 161 506 l 1,2,3
 199 549 199 549 246 549 c 0,4,5
 315 549 315 549 346.5 507 c 128,-1,6
 378 465 378 465 378 386 c 2,7,-1
 378 0 l 1,8,-1
 259 0 l 1,9,-1
 259 385 l 2,10,11
 259 413 259 413 245 427.5 c 128,-1,12
 231 442 231 442 210 442 c 0,13,14
 187 442 187 442 174 427.5 c 128,-1,15
 161 413 161 413 161 385 c 2,16,-1
 161 0 l 1,17,-1
 42 0 l 1,18,-1
 42 707 l 1,0,-1
EndSplineSet
EndChar

StartChar: i
Encoding: 105 105 76
Width: 210
GlyphClass: 2
Flags: W
LayerCount: 2
Fore
SplineSet
46 541 m 1,0,-1
 165 541 l 1,1,-1
 165 0 l 1,2,-1
 46 0 l 1,3,-1
 46 541 l 1,0,-1
46 707 m 1,4,-1
 165 707 l 1,5,-1
 165 607 l 1,6,-1
 46 607 l 1,7,-1
 46 707 l 1,4,-1
EndSplineSet
EndChar

StartChar: j
Encoding: 106 106 77
Width: 210
GlyphClass: 2
Flags: W
LayerCount: 2
Fore
SplineSet
46 707 m 1,0,-1
 165 707 l 1,1,-1
 165 607 l 1,2,-1
 46 607 l 1,3,-1
 46 707 l 1,0,-1
-25 -55 m 1,4,-1
 -19 -55 l 2,5,6
 47 -55 47 -55 46 13 c 2,7,-1
 46 541 l 1,8,-1
 165 541 l 1,9,-1
 165 6 l 2,10,11
 165 -162 165 -162 -18 -162 c 2,12,-1
 -25 -162 l 1,13,-1
 -25 -55 l 1,4,-1
EndSplineSet
EndChar

StartChar: k
Encoding: 107 107 78
Width: 429
GlyphClass: 2
Flags: W
LayerCount: 2
Fore
SplineSet
202 215 m 1,0,-1
 161 153 l 1,1,-1
 161 0 l 1,2,-1
 42 0 l 1,3,-1
 42 707 l 1,4,-1
 161 707 l 1,5,-1
 161 321 l 1,6,-1
 290 541 l 1,7,-1
 414 541 l 1,8,-1
 275 329 l 1,9,-1
 419 0 l 1,10,-1
 288 0 l 1,11,-1
 202 215 l 1,0,-1
EndSplineSet
EndChar

StartChar: l
Encoding: 108 108 79
Width: 245
GlyphClass: 2
Flags: W
LayerCount: 2
Fore
SplineSet
42 168 m 2,1,-1
 42 707 l 1,2,-1
 161 707 l 1,3,-1
 161 175 l 2,4,5
 161 106 161 106 226 106 c 2,6,-1
 231 106 l 1,7,-1
 231 0 l 1,8,-1
 225 0 l 2,9,0
 42 0 42 0 42 168 c 2,1,-1
EndSplineSet
EndChar

StartChar: m
Encoding: 109 109 80
Width: 636
GlyphClass: 2
Flags: W
LayerCount: 2
Fore
SplineSet
42 541 m 1,0,-1
 156 541 l 1,1,-1
 156 501 l 1,2,3
 193 549 193 549 247 549 c 0,4,5
 280 549 280 549 307.5 534 c 128,-1,6
 335 519 335 519 352 493 c 1,7,8
 372 518 372 518 400.5 533.5 c 128,-1,9
 429 549 429 549 459 549 c 0,10,11
 533 549 533 549 564 508 c 128,-1,12
 595 467 595 467 595 386 c 2,13,-1
 595 0 l 1,14,-1
 476 0 l 1,15,-1
 476 385 l 2,16,17
 476 413 476 413 462.5 427.5 c 128,-1,18
 449 442 449 442 427 442 c 256,19,20
 405 442 405 442 391.5 427.5 c 128,-1,21
 378 413 378 413 378 385 c 2,22,-1
 378 0 l 1,23,-1
 259 0 l 1,24,-1
 259 385 l 2,25,26
 259 413 259 413 245 427.5 c 128,-1,27
 231 442 231 442 210 442 c 0,28,29
 187 442 187 442 174 427.5 c 128,-1,30
 161 413 161 413 161 385 c 2,31,-1
 161 0 l 1,32,-1
 42 0 l 1,33,-1
 42 541 l 1,0,-1
EndSplineSet
EndChar

StartChar: n
Encoding: 110 110 81
Width: 419
GlyphClass: 2
Flags: W
LayerCount: 2
Fore
SplineSet
42 541 m 1,0,-1
 156 541 l 1,1,-1
 156 501 l 1,2,3
 194 549 194 549 246 549 c 0,4,5
 378 549 378 549 378 386 c 2,6,-1
 378 0 l 1,7,-1
 259 0 l 1,8,-1
 259 385 l 2,9,10
 259 413 259 413 245 427.5 c 128,-1,11
 231 442 231 442 210 442 c 0,12,13
 187 442 187 442 174 427.5 c 128,-1,14
 161 413 161 413 161 385 c 2,15,-1
 161 0 l 1,16,-1
 42 0 l 1,17,-1
 42 541 l 1,0,-1
EndSplineSet
EndChar

StartChar: o
Encoding: 111 111 82
Width: 420
GlyphClass: 2
Flags: W
LayerCount: 2
Fore
SplineSet
83 38 m 128,-1,1
 39 84 39 84 39 187 c 2,2,-1
 39 353 l 2,3,4
 39 456 39 456 83 502.5 c 128,-1,5
 127 549 127 549 211 549 c 256,6,7
 295 549 295 549 338.5 503 c 128,-1,8
 382 457 382 457 382 353 c 2,9,-1
 382 187 l 2,10,11
 382 84 382 84 338.5 38 c 128,-1,12
 295 -8 295 -8 211 -8 c 256,13,0
 127 -8 127 -8 83 38 c 128,-1,1
250 119 m 128,-1,15
 263 140 263 140 263 186 c 2,16,-1
 263 354 l 2,17,18
 263 400 263 400 250 421 c 128,-1,19
 237 442 237 442 210 442 c 0,20,21
 184 442 184 442 171 421 c 128,-1,22
 158 400 158 400 158 354 c 2,23,-1
 158 186 l 2,24,25
 158 140 158 140 171 119 c 128,-1,26
 184 98 184 98 210 98 c 0,27,14
 237 98 237 98 250 119 c 128,-1,15
EndSplineSet
EndChar

StartChar: p
Encoding: 112 112 83
Width: 419
GlyphClass: 2
Flags: W
LayerCount: 2
Fore
SplineSet
42 541 m 1,0,-1
 157 541 l 1,1,-1
 157 498 l 1,2,3
 192 549 192 549 252 549 c 0,4,5
 311 549 311 549 346 507 c 128,-1,6
 381 465 381 465 381 374 c 2,7,-1
 381 167 l 2,8,9
 381 76 381 76 344.5 34 c 128,-1,10
 308 -8 308 -8 250 -8 c 0,11,12
 196 -8 196 -8 161 33 c 1,13,-1
 161 -162 l 1,14,-1
 42 -162 l 1,15,-1
 42 541 l 1,0,-1
249.5 118.5 m 128,-1,17
 262 139 262 139 262 186 c 2,18,-1
 262 354 l 2,19,20
 262 400 262 400 249.5 421 c 128,-1,21
 237 442 237 442 211 442 c 256,22,23
 185 442 185 442 172 421 c 128,-1,24
 159 400 159 400 159 354 c 2,25,-1
 159 186 l 2,26,27
 159 98 159 98 211 98 c 0,28,16
 237 98 237 98 249.5 118.5 c 128,-1,17
EndSplineSet
EndChar

StartChar: q
Encoding: 113 113 84
Width: 419
GlyphClass: 2
Flags: W
LayerCount: 2
Fore
SplineSet
260 33 m 1,0,1
 225 -8 225 -8 171 -8 c 0,2,3
 112 -8 112 -8 75.5 34 c 128,-1,4
 39 76 39 76 39 167 c 2,5,-1
 39 374 l 2,6,7
 39 465 39 465 74.5 507 c 128,-1,8
 110 549 110 549 169 549 c 0,9,10
 227 549 227 549 264 498 c 1,11,-1
 264 541 l 1,12,-1
 378 541 l 1,13,-1
 378 -162 l 1,14,-1
 260 -162 l 1,15,-1
 260 33 l 1,0,1
262 186 m 2,17,-1
 262 354 l 2,18,19
 262 400 262 400 249 421 c 128,-1,20
 236 442 236 442 209 442 c 0,21,22
 183 442 183 442 170.5 421 c 128,-1,23
 158 400 158 400 158 354 c 2,24,-1
 158 186 l 2,25,26
 158 139 158 139 170.5 118.5 c 128,-1,27
 183 98 183 98 210 98 c 0,28,16
 262 98 262 98 262 186 c 2,17,-1
EndSplineSet
EndChar

StartChar: r
Encoding: 114 114 85
Width: 313
GlyphClass: 2
Flags: W
LayerCount: 2
Fore
SplineSet
42 541 m 1,0,-1
 156 541 l 1,1,-1
 156 490 l 1,2,3
 176 523 176 523 202 537 c 128,-1,4
 228 551 228 551 262 551 c 0,5,6
 282 551 282 551 299 547 c 1,7,-1
 299 422 l 1,8,9
 271 432 271 432 245 432 c 0,10,11
 207 432 207 432 184 408 c 128,-1,12
 161 384 161 384 161 340 c 2,13,-1
 161 0 l 1,14,-1
 42 0 l 1,15,-1
 42 541 l 1,0,-1
EndSplineSet
EndChar

StartChar: s
Encoding: 115 115 86
Width: 401
GlyphClass: 2
Flags: W
LayerCount: 2
Fore
SplineSet
77 35.5 m 128,-1,1
 31 79 31 79 31 156 c 2,2,-1
 31 162 l 1,3,-1
 145 162 l 1,4,-1
 145 156 l 2,5,6
 145 125 145 125 160.5 108 c 128,-1,7
 176 91 176 91 204 91 c 0,8,9
 231 91 231 91 244.5 106 c 128,-1,10
 258 121 258 121 258 150 c 0,11,12
 258 172 258 172 245 187.5 c 128,-1,13
 232 203 232 203 205 215 c 2,14,-1
 143 242 l 2,15,16
 81 269 81 269 57.5 304.5 c 128,-1,17
 34 340 34 340 34 394 c 0,18,19
 34 461 34 461 80 505 c 128,-1,20
 126 549 126 549 201 549 c 256,21,22
 276 549 276 549 322 505 c 128,-1,23
 368 461 368 461 368 390 c 2,24,-1
 368 380 l 1,25,-1
 253 380 l 1,26,-1
 253 386 l 2,27,28
 253 418 253 418 238.5 434.5 c 128,-1,29
 224 451 224 451 200 451 c 0,30,31
 176 451 176 451 162 437.5 c 128,-1,32
 148 424 148 424 148 399 c 0,33,34
 148 377 148 377 158.5 363 c 128,-1,35
 169 349 169 349 198 337 c 2,36,-1
 264 308 l 2,37,38
 322 282 322 282 348 246 c 128,-1,39
 374 210 374 210 374 152 c 0,40,41
 374 81 374 81 327.5 36.5 c 128,-1,42
 281 -8 281 -8 202 -8 c 256,43,0
 123 -8 123 -8 77 35.5 c 128,-1,1
EndSplineSet
EndChar

StartChar: t
Encoding: 116 116 87
Width: 309
GlyphClass: 2
Flags: W
LayerCount: 2
Fore
SplineSet
199 458 m 1,0,-1
 199 175 l 2,1,2
 199 106 199 106 267 106 c 2,3,-1
 271 106 l 1,4,-1
 271 0 l 1,5,-1
 267 0 l 2,6,7
 175 0 175 0 127.5 40.5 c 128,-1,8
 80 81 80 81 80 168 c 2,9,-1
 80 458 l 1,10,-1
 19 458 l 1,11,-1
 19 541 l 1,12,-1
 80 541 l 1,13,-1
 80 636 l 1,14,-1
 199 684 l 1,15,-1
 199 541 l 1,16,-1
 285 541 l 1,17,-1
 285 458 l 1,18,-1
 199 458 l 1,0,-1
EndSplineSet
EndChar

StartChar: u
Encoding: 117 117 88
Width: 419
GlyphClass: 2
Flags: W
LayerCount: 2
Fore
SplineSet
77.5 39.5 m 128,-1,1
 42 87 42 87 42 181 c 2,2,-1
 42 541 l 1,3,-1
 161 541 l 1,4,-1
 161 206 l 2,5,6
 161 164 161 164 163.5 143.5 c 128,-1,7
 166 123 166 123 176 110.5 c 128,-1,8
 186 98 186 98 210 98 c 256,9,10
 234 98 234 98 244 109 c 128,-1,11
 254 120 254 120 256.5 140.5 c 128,-1,12
 259 161 259 161 259 206 c 2,13,-1
 259 541 l 1,14,-1
 378 541 l 1,15,-1
 378 181 l 2,16,17
 378 116 378 116 363.5 76 c 128,-1,18
 349 36 349 36 312.5 14 c 128,-1,19
 276 -8 276 -8 210 -8 c 0,20,0
 113 -8 113 -8 77.5 39.5 c 128,-1,1
EndSplineSet
EndChar

StartChar: v
Encoding: 118 118 89
Width: 418
GlyphClass: 2
Flags: W
LayerCount: 2
Fore
SplineSet
11 541 m 1,0,-1
 142 541 l 1,1,-1
 210 189 l 1,2,-1
 276 541 l 1,3,-1
 408 541 l 1,4,-1
 272 0 l 1,5,-1
 146 0 l 1,6,-1
 11 541 l 1,0,-1
EndSplineSet
EndChar

StartChar: w
Encoding: 119 119 90
Width: 623
GlyphClass: 2
Flags: W
LayerCount: 2
Fore
SplineSet
11 541 m 1,0,-1
 142 541 l 1,1,-1
 197 189 l 1,2,-1
 262 541 l 1,3,-1
 360 541 l 1,4,-1
 426 189 l 1,5,-1
 480 541 l 1,6,-1
 612 541 l 1,7,-1
 488 0 l 1,8,-1
 373 0 l 1,9,-1
 311 331 l 1,10,-1
 249 0 l 1,11,-1
 134 0 l 1,12,-1
 11 541 l 1,0,-1
EndSplineSet
EndChar

StartChar: x
Encoding: 120 120 91
Width: 389
GlyphClass: 2
Flags: W
LayerCount: 2
Fore
SplineSet
257 0 m 1,0,-1
 190 152 l 1,1,-1
 133 0 l 1,2,-1
 11 0 l 1,3,-1
 133 281 l 1,4,-1
 18 541 l 1,5,-1
 139 541 l 1,6,-1
 200 404 l 1,7,-1
 250 541 l 1,8,-1
 372 541 l 1,9,-1
 253 283 l 1,10,-1
 378 0 l 1,11,-1
 257 0 l 1,0,-1
EndSplineSet
EndChar

StartChar: y
Encoding: 121 121 92
Width: 418
GlyphClass: 2
Flags: W
LayerCount: 2
Fore
SplineSet
408 541 m 1,0,-1
 261 -39 l 2,1,2
 249 -89 249 -89 223 -115.5 c 128,-1,3
 197 -142 197 -142 157 -152 c 128,-1,4
 117 -162 117 -162 54 -162 c 2,5,-1
 50 -162 l 1,6,-1
 50 -57 l 1,7,-1
 93 -57 l 2,8,9
 146 -57 146 -57 162 -30 c 1,10,-1
 11 541 l 1,11,-1
 142 541 l 1,12,-1
 215 212 l 1,13,-1
 283 541 l 1,14,-1
 408 541 l 1,0,-1
EndSplineSet
EndChar

StartChar: z
Encoding: 122 122 93
Width: 393
GlyphClass: 2
Flags: W
LayerCount: 2
Fore
SplineSet
354 440 m 1,0,-1
 161 100 l 1,1,-1
 354 100 l 1,2,-1
 354 0 l 1,3,-1
 39 0 l 1,4,-1
 39 100 l 1,5,-1
 236 440 l 1,6,-1
 39 440 l 1,7,-1
 39 541 l 1,8,-1
 354 541 l 1,9,-1
 354 440 l 1,0,-1
EndSplineSet
EndChar

StartChar: braceleft
Encoding: 123 123 94
Width: 326
GlyphClass: 2
Flags: W
LayerCount: 2
Fore
SplineSet
138 -53 m 128,-1,1
 106 -20 106 -20 106 41 c 2,2,-1
 106 212 l 2,3,4
 106 252 106 252 92 269 c 128,-1,5
 78 286 78 286 39 286 c 1,6,-1
 39 391 l 1,7,8
 78 391 78 391 92 408 c 128,-1,9
 106 425 106 425 106 466 c 2,10,-1
 106 631 l 2,11,12
 106 692 106 692 138 725 c 128,-1,13
 170 758 170 758 230 758 c 2,14,-1
 288 758 l 1,15,-1
 288 652 l 1,16,-1
 267 652 l 2,17,18
 245 652 245 652 234.5 640 c 128,-1,19
 224 628 224 628 224 605 c 2,20,-1
 224 475 l 2,21,22
 224 409 224 409 212.5 381 c 128,-1,23
 201 353 201 353 162 339 c 1,24,25
 201 324 201 324 212.5 295 c 128,-1,26
 224 266 224 266 224 202 c 2,27,-1
 224 67 l 2,28,29
 224 44 224 44 235 31.5 c 128,-1,30
 246 19 246 19 267 19 c 2,31,-1
 288 19 l 1,32,-1
 288 -86 l 1,33,-1
 230 -86 l 2,34,0
 170 -86 170 -86 138 -53 c 128,-1,1
EndSplineSet
Substitution2: "'rtla' Right to Left Alternates lookup 0 subtable" braceright
EndChar

StartChar: bar
Encoding: 124 124 95
Width: 270
GlyphClass: 2
Flags: W
LayerCount: 2
Fore
SplineSet
78 758 m 1,0,-1
 193 758 l 1,1,-1
 193 -86 l 1,2,-1
 78 -86 l 1,3,-1
 78 758 l 1,0,-1
EndSplineSet
EndChar

StartChar: braceright
Encoding: 125 125 96
Width: 326
GlyphClass: 2
Flags: W
LayerCount: 2
Fore
SplineSet
39 19 m 1,0,-1
 59 19 l 2,1,2
 81 19 81 19 91.5 31.5 c 128,-1,3
 102 44 102 44 102 67 c 2,4,-1
 102 202 l 2,5,6
 102 267 102 267 114.5 295.5 c 128,-1,7
 127 324 127 324 165 339 c 1,8,9
 126 353 126 353 114 381.5 c 128,-1,10
 102 410 102 410 102 475 c 2,11,-1
 102 605 l 2,12,13
 102 628 102 628 91.5 640 c 128,-1,14
 81 652 81 652 59 652 c 2,15,-1
 39 652 l 1,16,-1
 39 758 l 1,17,-1
 97 758 l 2,18,19
 157 758 157 758 188.5 725 c 128,-1,20
 220 692 220 692 220 631 c 2,21,-1
 220 466 l 2,22,23
 220 425 220 425 234.5 408 c 128,-1,24
 249 391 249 391 288 391 c 1,25,-1
 288 286 l 1,26,27
 249 286 249 286 234.5 269 c 128,-1,28
 220 252 220 252 220 212 c 2,29,-1
 220 41 l 2,30,31
 220 -20 220 -20 189 -53 c 128,-1,32
 158 -86 158 -86 97 -86 c 2,33,-1
 39 -86 l 1,34,-1
 39 19 l 1,0,-1
EndSplineSet
Substitution2: "'rtla' Right to Left Alternates lookup 0 subtable" braceleft
EndChar

StartChar: asciitilde
Encoding: 126 126 97
Width: 429
GlyphClass: 2
Flags: W
LayerCount: 2
Fore
SplineSet
26 244 m 1,0,1
 52 297 52 297 80 320.5 c 128,-1,2
 108 344 108 344 144 344 c 0,3,4
 164 344 164 344 182 337 c 128,-1,5
 200 330 200 330 221 316 c 0,6,7
 233 309 233 309 245.5 303.5 c 128,-1,8
 258 298 258 298 267 298 c 0,9,10
 283 298 283 298 294 308 c 128,-1,11
 305 318 305 318 323 350 c 1,12,-1
 395 307 l 1,13,14
 370 254 370 254 342 230.5 c 128,-1,15
 314 207 314 207 276 207 c 0,16,17
 257 207 257 207 238.5 214 c 128,-1,18
 220 221 220 221 200 234 c 0,19,20
 197 236 197 236 187 242 c 128,-1,21
 177 248 177 248 169 250.5 c 128,-1,22
 161 253 161 253 155 253 c 0,23,24
 140 253 140 253 128 242.5 c 128,-1,25
 116 232 116 232 99 202 c 1,26,-1
 26 244 l 1,0,1
EndSplineSet
EndChar

StartChar: exclamdown
Encoding: 161 161 99
Width: 212
GlyphClass: 2
Flags: W
LayerCount: 2
Fore
SplineSet
47 541 m 1,0,-1
 166 541 l 1,1,-1
 166 407 l 1,2,-1
 47 407 l 1,3,-1
 47 541 l 1,0,-1
67 314 m 1,4,-1
 146 314 l 1,5,-1
 171 -162 l 1,6,-1
 42 -162 l 1,7,-1
 67 314 l 1,4,-1
EndSplineSet
EndChar

StartChar: cent
Encoding: 162 162 100
Width: 453
GlyphClass: 2
Flags: W
LayerCount: 2
Fore
SplineSet
263 352 m 1,0,-1
 263 371 l 2,1,2
 263 407 263 407 249.5 424.5 c 128,-1,3
 236 442 236 442 211 442 c 0,4,5
 184 442 184 442 171 421 c 128,-1,6
 158 400 158 400 158 354 c 2,7,-1
 158 186 l 2,8,9
 158 140 158 140 171 119 c 128,-1,10
 184 98 184 98 210 98 c 256,11,12
 236 98 236 98 249.5 116 c 128,-1,13
 263 134 263 134 263 171 c 2,14,-1
 263 188 l 1,15,-1
 378 188 l 1,16,-1
 378 171 l 2,17,18
 378 96 378 96 348 52.5 c 128,-1,19
 318 9 318 9 262 -3 c 1,20,-1
 262 -102 l 1,21,-1
 202 -102 l 1,22,-1
 202 -8 l 1,23,24
 122 -6 122 -6 80.5 40 c 128,-1,25
 39 86 39 86 39 187 c 2,26,-1
 39 353 l 2,27,28
 39 454 39 454 80.5 500.5 c 128,-1,29
 122 547 122 547 202 549 c 1,30,-1
 202 650 l 1,31,-1
 262 650 l 1,32,-1
 262 544 l 1,33,34
 378 518 378 518 378 373 c 2,35,-1
 378 352 l 1,36,-1
 263 352 l 1,0,-1
EndSplineSet
EndChar

StartChar: sterling
Encoding: 163 163 101
Width: 430
GlyphClass: 2
Flags: W
LayerCount: 2
Fore
SplineSet
199.5 152 m 128,-1,1
 191 130 191 130 173 114 c 1,2,-1
 402 114 l 1,3,-1
 402 0 l 1,4,-1
 37 0 l 1,5,-1
 37 116 l 1,6,7
 65 126 65 126 73.5 146 c 128,-1,8
 82 166 82 166 82 208 c 2,9,-1
 82 296 l 1,10,-1
 19 296 l 1,11,-1
 19 410 l 1,12,-1
 82 410 l 1,13,-1
 82 552 l 2,14,15
 82 631 82 631 123 674 c 128,-1,16
 164 717 164 717 247 717 c 256,17,18
 330 717 330 717 370.5 673 c 128,-1,19
 411 629 411 629 411 548 c 1,20,-1
 291 548 l 1,21,22
 291 586 291 586 281.5 601 c 128,-1,23
 272 616 272 616 251 616 c 0,24,25
 228 616 228 616 218 603 c 128,-1,26
 208 590 208 590 208 561 c 2,27,-1
 208 410 l 1,28,-1
 331 410 l 1,29,-1
 331 296 l 1,30,-1
 208 296 l 1,31,-1
 208 206 l 2,32,0
 208 174 208 174 199.5 152 c 128,-1,1
EndSplineSet
EndChar

StartChar: currency
Encoding: 164 164 102
Width: 584
GlyphClass: 2
Flags: W
LayerCount: 2
Fore
SplineSet
398 137 m 1,0,1
 349 109 349 109 292 110 c 0,2,3
 233 110 233 110 185 137 c 1,4,-1
 118 71 l 1,5,-1
 42 147 l 1,6,-1
 109 215 l 1,7,8
 83 261 83 261 83 318 c 0,9,10
 83 373 83 373 110 422 c 1,11,-1
 42 490 l 1,12,-1
 119 567 l 1,13,-1
 185 500 l 1,14,15
 235 528 235 528 292 527 c 256,16,17
 348 527 348 527 397 500 c 1,18,-1
 466 567 l 1,19,-1
 542 490 l 1,20,-1
 474 423 l 1,21,22
 502 374 502 374 502 318 c 256,23,24
 502 263 502 263 475 215 c 1,25,-1
 543 146 l 1,26,-1
 466 70 l 1,27,-1
 398 137 l 1,0,1
363.5 244.5 m 128,-1,29
 392 274 392 274 392 318 c 256,30,31
 392 362 392 362 363.5 392 c 128,-1,32
 335 422 335 422 292 422 c 256,33,34
 249 422 249 422 221 392 c 128,-1,35
 193 362 193 362 193 318 c 256,36,37
 193 274 193 274 221 244.5 c 128,-1,38
 249 215 249 215 292 215 c 256,39,28
 335 215 335 215 363.5 244.5 c 128,-1,29
EndSplineSet
EndChar

StartChar: yen
Encoding: 165 165 103
Width: 418
GlyphClass: 2
Flags: W
LayerCount: 2
Fore
SplineSet
146 113 m 1,0,-1
 41 113 l 1,1,-1
 41 200 l 1,2,-1
 146 200 l 1,3,-1
 146 254 l 1,4,-1
 41 254 l 1,5,-1
 41 341 l 1,6,-1
 134 341 l 1,7,-1
 5 707 l 1,8,-1
 138 707 l 1,9,-1
 212 433 l 1,10,-1
 283 707 l 1,11,-1
 414 707 l 1,12,-1
 285 341 l 1,13,-1
 378 341 l 1,14,-1
 378 254 l 1,15,-1
 272 254 l 1,16,-1
 272 200 l 1,17,-1
 378 200 l 1,18,-1
 378 113 l 1,19,-1
 272 113 l 1,20,-1
 272 0 l 1,21,-1
 146 0 l 1,22,-1
 146 113 l 1,0,-1
EndSplineSet
EndChar

StartChar: brokenbar
Encoding: 166 166 104
Width: 270
GlyphClass: 2
Flags: W
LayerCount: 2
Fore
SplineSet
78 758 m 1,0,-1
 193 758 l 1,1,-1
 193 397 l 1,2,-1
 78 397 l 1,3,-1
 78 758 l 1,0,-1
78 274 m 1,4,-1
 193 274 l 1,5,-1
 193 -86 l 1,6,-1
 78 -86 l 1,7,-1
 78 274 l 1,4,-1
EndSplineSet
EndChar

StartChar: section
Encoding: 167 167 105
Width: 418
GlyphClass: 2
Flags: W
LayerCount: 2
Fore
SplineSet
90 -129.5 m 128,-1,1
 56 -87 56 -87 56 4 c 1,2,-1
 164 4 l 1,3,4
 164 -41 164 -41 171.5 -59.5 c 128,-1,5
 179 -78 179 -78 207 -78 c 0,6,7
 233 -78 233 -78 242 -61.5 c 128,-1,8
 251 -45 251 -45 251 -15 c 0,9,10
 251 18 251 18 242.5 36 c 128,-1,11
 234 54 234 54 216 65.5 c 128,-1,12
 198 77 198 77 160 91 c 0,13,14
 94 115 94 115 68.5 158.5 c 128,-1,15
 43 202 43 202 43 280 c 0,16,17
 43 339 43 339 61 376.5 c 128,-1,18
 79 414 79 414 123 432 c 1,19,20
 85 447 85 447 70.5 482.5 c 128,-1,21
 56 518 56 518 56 569 c 0,22,23
 56 648 56 648 95.5 687.5 c 128,-1,24
 135 727 135 727 210 727 c 0,25,26
 294 727 294 727 326.5 685 c 128,-1,27
 359 643 359 643 359 553 c 1,28,-1
 252 553 l 1,29,30
 252 597 252 597 245.5 615 c 128,-1,31
 239 633 239 633 211 633 c 0,32,33
 186 633 186 633 178.5 616.5 c 128,-1,34
 171 600 171 600 171 569 c 256,35,36
 171 538 171 538 179 521 c 128,-1,37
 187 504 187 504 205 492 c 128,-1,38
 223 480 223 480 259 468 c 0,39,40
 326 444 326 444 351 401 c 128,-1,41
 376 358 376 358 376 280 c 0,42,43
 376 220 376 220 358 182.5 c 128,-1,44
 340 145 340 145 296 128 c 1,45,46
 335 111 335 111 350 76.5 c 128,-1,47
 365 42 365 42 365 -11 c 0,48,49
 365 -172 365 -172 208 -172 c 0,50,0
 124 -172 124 -172 90 -129.5 c 128,-1,1
253 205.5 m 128,-1,52
 263 229 263 229 263 280 c 0,53,54
 263 331 263 331 253 354 c 128,-1,55
 243 377 243 377 209 377 c 256,56,57
 175 377 175 377 165.5 353.5 c 128,-1,58
 156 330 156 330 156 280 c 256,59,60
 156 230 156 230 166 206 c 128,-1,61
 176 182 176 182 209 182 c 0,62,51
 243 182 243 182 253 205.5 c 128,-1,52
185 721 m 1024,63,-1
EndSplineSet
EndChar

StartChar: dieresis
Encoding: 168 168 106
Width: 512
GlyphClass: 2
Flags: W
LayerCount: 2
Fore
SplineSet
128 722 m 1,0,-1
 223 722 l 1,1,-1
 223 605 l 1,2,-1
 128 605 l 1,3,-1
 128 722 l 1,0,-1
288 722 m 1,4,-1
 383 722 l 1,5,-1
 383 605 l 1,6,-1
 288 605 l 1,7,-1
 288 722 l 1,4,-1
EndSplineSet
EndChar

StartChar: copyright
Encoding: 169 169 107
Width: 719
GlyphClass: 2
Flags: W
LayerCount: 2
Fore
SplineSet
123 89 m 128,-1,1
 39 184 39 184 39 351 c 0,2,3
 39 520 39 520 123 614.5 c 128,-1,4
 207 709 207 709 360 709 c 256,5,6
 514 709 514 709 597.5 613.5 c 128,-1,7
 681 518 681 518 681 351 c 256,8,9
 681 184 681 184 597 89 c 128,-1,10
 513 -6 513 -6 360 -6 c 0,11,0
 207 -6 207 -6 123 89 c 128,-1,1
542 138.5 m 128,-1,13
 603 214 603 214 603 351 c 0,14,15
 603 489 603 489 541.5 564 c 128,-1,16
 480 639 480 639 360 639 c 0,17,18
 239 639 239 639 178 563.5 c 128,-1,19
 117 488 117 488 117 351 c 0,20,21
 117 213 117 213 178.5 138 c 128,-1,22
 240 63 240 63 360 63 c 256,23,12
 481 63 481 63 542 138.5 c 128,-1,13
270 186 m 128,-1,25
 239 219 239 219 239 293 c 2,26,-1
 239 412 l 2,27,28
 239 486 239 486 270 518.5 c 128,-1,29
 301 551 301 551 361 551 c 0,30,31
 481 551 481 551 481 426 c 2,32,-1
 481 412 l 1,33,-1
 399 412 l 1,34,-1
 399 424 l 2,35,36
 399 450 399 450 389 463 c 128,-1,37
 379 476 379 476 361 476 c 0,38,39
 323 476 323 476 324 413 c 2,40,-1
 324 292 l 2,41,42
 324 258 324 258 333 243 c 128,-1,43
 342 228 342 228 361 228 c 0,44,45
 399 228 399 228 399 282 c 2,46,-1
 399 294 l 1,47,-1
 481 294 l 1,48,-1
 481 282 l 2,49,50
 481 217 481 217 450.5 185 c 128,-1,51
 420 153 420 153 361 153 c 0,52,24
 301 153 301 153 270 186 c 128,-1,25
EndSplineSet
EndChar

StartChar: ordfeminine
Encoding: 170 170 108
Width: 314
GlyphClass: 2
Flags: W
LayerCount: 2
Fore
SplineSet
236 735.5 m 128,-1,1
 265 707 265 707 265 659 c 2,2,-1
 265 440 l 1,3,-1
 191 440 l 1,4,-1
 191 466 l 1,5,6
 177 451 177 451 164 443 c 128,-1,7
 151 435 151 435 129 435 c 0,8,9
 84 435 84 435 61 461 c 128,-1,10
 38 487 38 487 38 536 c 0,11,12
 38 582 38 582 68.5 606.5 c 128,-1,13
 99 631 99 631 157 631 c 2,14,-1
 187 631 l 1,15,-1
 187 664 l 2,16,17
 187 694 187 694 154 693 c 0,18,19
 139 693 139 693 129.5 686 c 128,-1,20
 120 679 120 679 120 667 c 2,21,-1
 120 664 l 1,22,-1
 47 664 l 1,23,-1
 47 666 l 2,24,25
 47 715 47 715 76.5 739.5 c 128,-1,26
 106 764 106 764 155 764 c 0,27,0
 207 764 207 764 236 735.5 c 128,-1,1
177 514.5 m 128,-1,29
 187 523 187 523 187 538 c 2,30,-1
 187 574 l 1,31,-1
 166 574 l 2,32,33
 117 574 117 574 117 539 c 0,34,35
 117 525 117 525 126 515.5 c 128,-1,36
 135 506 135 506 152 506 c 0,37,28
 167 506 167 506 177 514.5 c 128,-1,29
143 867 m 1024,38,-1
EndSplineSet
EndChar

StartChar: guillemotleft
Encoding: 171 171 109
Width: 452
GlyphClass: 2
Flags: W
LayerCount: 2
Fore
SplineSet
14 270 m 1,0,-1
 213 473 l 1,1,-1
 213 360 l 1,2,-1
 125 270 l 1,3,-1
 213 180 l 1,4,-1
 213 68 l 1,5,-1
 14 270 l 1,0,-1
212 270 m 1,6,-1
 411 473 l 1,7,-1
 411 360 l 1,8,-1
 322 270 l 1,9,-1
 411 180 l 1,10,-1
 411 68 l 1,11,-1
 212 270 l 1,6,-1
EndSplineSet
EndChar

StartChar: logicalnot
Encoding: 172 172 110
Width: 429
GlyphClass: 2
Flags: W
LayerCount: 2
Fore
SplineSet
273 262 m 1,0,-1
 36 262 l 1,1,-1
 36 369 l 1,2,-1
 392 369 l 1,3,-1
 392 159 l 1,4,-1
 273 159 l 1,5,-1
 273 262 l 1,0,-1
EndSplineSet
EndChar

StartChar: registered
Encoding: 174 174 112
Width: 438
GlyphClass: 2
Flags: W
LayerCount: 2
Fore
SplineSet
88.5 374.5 m 128,-1,1
 43 426 43 426 43 517 c 256,2,3
 43 608 43 608 89.5 659.5 c 128,-1,4
 136 711 136 711 218 711 c 0,5,6
 302 711 302 711 348.5 658 c 128,-1,7
 395 605 395 605 395 517 c 0,8,9
 395 427 395 427 348.5 375 c 128,-1,10
 302 323 302 323 218 323 c 256,11,0
 134 323 134 323 88.5 374.5 c 128,-1,1
317.5 401.5 m 128,-1,13
 351 442 351 442 351 517 c 256,14,15
 351 592 351 592 317 632 c 128,-1,16
 283 672 283 672 218 672 c 0,17,18
 152 672 152 672 118.5 631.5 c 128,-1,19
 85 591 85 591 85 517 c 0,20,21
 85 441 85 441 119 401 c 128,-1,22
 153 361 153 361 218 361 c 256,23,12
 284 361 284 361 317.5 401.5 c 128,-1,13
161 627 m 1,24,-1
 221 627 l 2,25,26
 284 627 284 627 285 562 c 0,27,28
 285 524 285 524 260 506 c 1,29,-1
 292 410 l 1,30,-1
 245 410 l 1,31,-1
 218 495 l 1,32,-1
 206 495 l 1,33,-1
 206 410 l 1,34,-1
 161 410 l 1,35,-1
 161 627 l 1,24,-1
216 535 m 2,36,37
 229 535 229 535 234.5 540.5 c 128,-1,38
 240 546 240 546 240 561 c 256,39,40
 240 576 240 576 234.5 581 c 128,-1,41
 229 586 229 586 216 586 c 2,42,-1
 206 586 l 1,43,-1
 206 535 l 1,44,-1
 216 535 l 2,36,37
EndSplineSet
EndChar

StartChar: macron
Encoding: 175 175 113
Width: 512
GlyphClass: 2
Flags: W
LayerCount: 2
Fore
SplineSet
134 717 m 1,0,-1
 377 717 l 1,1,-1
 377 610 l 1,2,-1
 134 610 l 1,3,-1
 134 717 l 1,0,-1
EndSplineSet
EndChar

StartChar: degree
Encoding: 176 176 114
Width: 332
GlyphClass: 2
Flags: W
LayerCount: 2
Fore
SplineSet
75.5 500.5 m 128,-1,1
 39 537 39 537 39 591 c 256,2,3
 39 645 39 645 75.5 681.5 c 128,-1,4
 112 718 112 718 166 718 c 0,5,6
 221 718 221 718 257.5 681.5 c 128,-1,7
 294 645 294 645 294 591 c 256,8,9
 294 537 294 537 257.5 500.5 c 128,-1,10
 221 464 221 464 166 464 c 0,11,0
 112 464 112 464 75.5 500.5 c 128,-1,1
208 546.5 m 128,-1,13
 225 564 225 564 225 591 c 256,14,15
 225 618 225 618 208 635 c 128,-1,16
 191 652 191 652 166 652 c 256,17,18
 140 652 140 652 124 634.5 c 128,-1,19
 108 617 108 617 108 591 c 256,20,21
 108 564 108 564 124 546.5 c 128,-1,22
 140 529 140 529 166 529 c 256,23,12
 191 529 191 529 208 546.5 c 128,-1,13
EndSplineSet
EndChar

StartChar: plusminus
Encoding: 177 177 115
Width: 429
GlyphClass: 2
Flags: W
LayerCount: 2
Fore
SplineSet
158 295 m 1,0,-1
 33 295 l 1,1,-1
 33 409 l 1,2,-1
 158 409 l 1,3,-1
 158 534 l 1,4,-1
 271 534 l 1,5,-1
 271 409 l 1,6,-1
 396 409 l 1,7,-1
 396 295 l 1,8,-1
 271 295 l 1,9,-1
 271 170 l 1,10,-1
 158 170 l 1,11,-1
 158 295 l 1,0,-1
33 123 m 1,12,-1
 396 123 l 1,13,-1
 396 9 l 1,14,-1
 33 9 l 1,15,-1
 33 123 l 1,12,-1
EndSplineSet
EndChar

StartChar: acute
Encoding: 180 180 118
Width: 512
GlyphClass: 2
Flags: W
LayerCount: 2
Fore
SplineSet
244 743 m 1,0,-1
 370 743 l 1,1,-1
 244 604 l 1,2,-1
 142 604 l 1,3,-1
 244 743 l 1,0,-1
EndSplineSet
EndChar

StartChar: uni00B5
Encoding: 181 181 119
Width: 419
GlyphClass: 2
Flags: W
LayerCount: 2
Fore
SplineSet
42 541 m 1,0,-1
 161 541 l 1,1,-1
 161 156 l 2,2,3
 161 128 161 128 174.5 113 c 128,-1,4
 188 98 188 98 210 98 c 256,5,6
 232 98 232 98 245.5 113 c 128,-1,7
 259 128 259 128 259 156 c 2,8,-1
 259 541 l 1,9,-1
 378 541 l 1,10,-1
 378 0 l 1,11,-1
 264 0 l 1,12,-1
 264 40 l 1,13,14
 255 18 255 18 235.5 6.5 c 128,-1,15
 216 -5 216 -5 196 -5 c 0,16,17
 171 -5 171 -5 154 4 c 1,18,-1
 154 -162 l 1,19,-1
 42 -162 l 1,20,-1
 42 541 l 1,0,-1
EndSplineSet
EndChar

StartChar: paragraph
Encoding: 182 182 120
Width: 566
GlyphClass: 2
Flags: W
LayerCount: 2
Fore
SplineSet
213 267 m 1,0,1
 163 270 163 270 124.5 300.5 c 128,-1,2
 86 331 86 331 64.5 379.5 c 128,-1,3
 43 428 43 428 43 487 c 0,4,5
 43 547 43 547 68 597.5 c 128,-1,6
 93 648 93 648 139.5 677.5 c 128,-1,7
 186 707 186 707 248 707 c 2,8,-1
 502 707 l 1,9,-1
 502 -162 l 1,10,-1
 389 -162 l 1,11,-1
 389 610 l 1,12,-1
 327 610 l 1,13,-1
 327 -162 l 1,14,-1
 213 -162 l 1,15,-1
 213 267 l 1,0,1
EndSplineSet
EndChar

StartChar: cedilla
Encoding: 184 184 122
Width: 512
GlyphClass: 2
Flags: W
LayerCount: 2
Fore
SplineSet
232 10 m 1,0,-1
 323 10 l 1,1,-1
 262 -162 l 1,2,-1
 158 -162 l 1,3,-1
 232 10 l 1,0,-1
EndSplineSet
EndChar

StartChar: ordmasculine
Encoding: 186 186 124
Width: 317
GlyphClass: 2
Flags: W
LayerCount: 2
Fore
SplineSet
73 462 m 128,-1,1
 44 489 44 489 44 552 c 2,2,-1
 44 647 l 2,3,4
 44 709 44 709 73 736.5 c 128,-1,5
 102 764 102 764 160 764 c 0,6,7
 215 764 215 764 244 737 c 128,-1,8
 273 710 273 710 273 647 c 2,9,-1
 273 552 l 2,10,11
 273 490 273 490 244 462.5 c 128,-1,12
 215 435 215 435 160 435 c 0,13,0
 102 435 102 435 73 462 c 128,-1,1
185 518 m 128,-1,15
 194 529 194 529 194 555 c 2,16,-1
 194 644 l 2,17,18
 194 670 194 670 185 681 c 128,-1,19
 176 692 176 692 159 692 c 256,20,21
 142 692 142 692 132.5 681 c 128,-1,22
 123 670 123 670 123 644 c 2,23,-1
 123 555 l 2,24,25
 123 507 123 507 159 507 c 0,26,14
 176 507 176 507 185 518 c 128,-1,15
145 867 m 1024,27,-1
EndSplineSet
EndChar

StartChar: guillemotright
Encoding: 187 187 125
Width: 452
GlyphClass: 2
Flags: W
LayerCount: 2
Fore
SplineSet
42 180 m 1,0,-1
 130 270 l 1,1,-1
 42 360 l 1,2,-1
 42 473 l 1,3,-1
 241 270 l 1,4,-1
 42 68 l 1,5,-1
 42 180 l 1,0,-1
240 180 m 1,6,-1
 328 270 l 1,7,-1
 240 360 l 1,8,-1
 240 473 l 1,9,-1
 438 270 l 1,10,-1
 240 68 l 1,11,-1
 240 180 l 1,6,-1
EndSplineSet
EndChar

StartChar: questiondown
Encoding: 191 191 129
Width: 385
GlyphClass: 2
Flags: W
LayerCount: 2
Fore
SplineSet
140 541 m 1,0,-1
 252 541 l 1,1,-1
 252 411 l 1,2,-1
 140 411 l 1,3,-1
 140 541 l 1,0,-1
72.5 -127 m 128,-1,5
 27 -82 27 -82 27 -2 c 0,6,7
 27 39 27 39 35.5 69 c 128,-1,8
 44 99 44 99 72 139 c 2,9,-1
 113 198 l 2,10,11
 131 224 131 224 135.5 243.5 c 128,-1,12
 140 263 140 263 140 297 c 2,13,-1
 140 338 l 1,14,-1
 252 338 l 1,15,-1
 252 297 l 2,16,17
 252 250 252 250 246 224 c 128,-1,18
 240 198 240 198 212 155 c 2,19,-1
 176 98 l 2,20,21
 160 72 160 72 153.5 52 c 128,-1,22
 147 32 147 32 147 0 c 0,23,24
 147 -65 147 -65 197 -65 c 0,25,26
 229 -65 229 -65 237.5 -42 c 128,-1,27
 246 -19 246 -19 246 36 c 1,28,-1
 365 36 l 1,29,30
 365 -69 365 -69 324.5 -120.5 c 128,-1,31
 284 -172 284 -172 196 -172 c 0,32,4
 118 -172 118 -172 72.5 -127 c 128,-1,5
EndSplineSet
EndChar

StartChar: Aring
Encoding: 197 197 135
Width: 496
GlyphClass: 2
Flags: W
LayerCount: 2
Fore
SplineSet
331 137 m 1,0,-1
 166 137 l 1,1,-1
 137 0 l 1,2,-1
 6 0 l 1,3,-1
 187 707 l 1,4,5
 171 720 171 720 162 739.5 c 128,-1,6
 153 759 153 759 153 781 c 0,7,8
 153 823 153 823 180.5 851 c 128,-1,9
 208 879 208 879 249 879 c 256,10,11
 290 879 290 879 317.5 851 c 128,-1,12
 345 823 345 823 345 781 c 0,13,14
 345 758 345 758 336 739 c 128,-1,15
 327 720 327 720 310 707 c 1,16,-1
 490 0 l 1,17,-1
 359 0 l 1,18,-1
 331 137 l 1,0,-1
215.5 815 m 128,-1,20
 203 802 203 802 203 781 c 0,21,22
 203 762 203 762 216 748.5 c 128,-1,23
 229 735 229 735 249 735 c 256,24,25
 268 735 268 735 281 748.5 c 128,-1,26
 294 762 294 762 294 781 c 0,27,28
 294 801 294 801 281 814.5 c 128,-1,29
 268 828 268 828 249 828 c 0,30,19
 228 828 228 828 215.5 815 c 128,-1,20
308 250 m 1,31,-1
 249 537 l 1,32,-1
 189 250 l 1,33,-1
 308 250 l 1,31,-1
244 707 m 1024,34,-1
275 685 m 1024,35,-1
EndSplineSet
EndChar

StartChar: AE
Encoding: 198 198 136
Width: 695
GlyphClass: 2
Flags: W
LayerCount: 2
Fore
SplineSet
480 593 m 1,0,-1
 480 416 l 1,1,-1
 644 416 l 1,2,-1
 644 303 l 1,3,-1
 480 303 l 1,4,-1
 480 113 l 1,5,-1
 670 113 l 1,6,-1
 670 0 l 1,7,-1
 354 0 l 1,8,-1
 354 136 l 1,9,-1
 187 136 l 1,10,-1
 137 0 l 1,11,-1
 6 0 l 1,12,-1
 272 707 l 1,13,-1
 670 707 l 1,14,-1
 670 593 l 1,15,-1
 480 593 l 1,0,-1
354 249 m 1,16,-1
 354 594 l 1,17,-1
 228 249 l 1,18,-1
 354 249 l 1,16,-1
EndSplineSet
EndChar

StartChar: Ccedilla
Encoding: 199 199 137
Width: 479
GlyphClass: 2
Flags: W
LayerCount: 2
Fore
SplineSet
314 488 m 1,0,-1
 314 509 l 2,1,2
 314 557 314 557 294 580 c 128,-1,3
 274 603 274 603 241 603 c 0,4,5
 201 603 201 603 183 575.5 c 128,-1,6
 165 548 165 548 165 493 c 2,7,-1
 165 209 l 2,8,9
 165 106 165 106 241 105 c 0,10,11
 275 105 275 105 294.5 129 c 128,-1,12
 314 153 314 153 314 199 c 2,13,-1
 314 217 l 1,14,-1
 439 217 l 1,15,-1
 439 198 l 2,16,17
 439 115 439 115 401.5 65 c 128,-1,18
 364 15 364 15 299 -1 c 1,19,-1
 243 -162 l 1,20,-1
 138 -162 l 1,21,-1
 206 -6 l 1,22,23
 128 2 128 2 83.5 52.5 c 128,-1,24
 39 103 39 103 39 195 c 2,25,-1
 39 513 l 2,26,27
 39 613 39 613 95.5 665 c 128,-1,28
 152 717 152 717 244 717 c 0,29,30
 332 717 332 717 386 665.5 c 128,-1,31
 440 614 440 614 440 510 c 2,32,-1
 440 488 l 1,33,-1
 314 488 l 1,0,-1
EndSplineSet
EndChar

StartChar: Eth
Encoding: 208 208 146
Width: 494
GlyphClass: 2
Flags: W
LayerCount: 2
Fore
SplineSet
402 655.5 m 128,-1,1
 456 604 456 604 456 504 c 2,2,-1
 456 203 l 2,3,4
 456 104 456 104 399.5 52 c 128,-1,5
 343 0 343 0 253 0 c 2,6,-1
 63 0 l 1,7,-1
 63 307 l 1,8,-1
 20 307 l 1,9,-1
 20 420 l 1,10,-1
 63 420 l 1,11,-1
 63 707 l 1,12,-1
 259 707 l 2,13,0
 348 707 348 707 402 655.5 c 128,-1,1
330 482 m 2,14,15
 330 536 330 536 311.5 564.5 c 128,-1,16
 293 593 293 593 256 593 c 2,17,-1
 188 593 l 1,18,-1
 188 420 l 1,19,-1
 276 420 l 1,20,-1
 276 307 l 1,21,-1
 188 307 l 1,22,-1
 188 113 l 1,23,-1
 256 113 l 2,24,25
 292 113 292 113 311 140.5 c 128,-1,26
 330 168 330 168 330 217 c 2,27,-1
 330 482 l 2,14,15
EndSplineSet
EndChar

StartChar: multiply
Encoding: 215 215 153
Width: 429
GlyphClass: 2
Flags: W
LayerCount: 2
Fore
SplineSet
43 185 m 1,0,-1
 140 283 l 1,1,-1
 43 379 l 1,2,-1
 118 454 l 1,3,-1
 215 357 l 1,4,-1
 311 454 l 1,5,-1
 386 379 l 1,6,-1
 290 283 l 1,7,-1
 386 185 l 1,8,-1
 311 111 l 1,9,-1
 215 208 l 1,10,-1
 118 111 l 1,11,-1
 43 185 l 1,0,-1
EndSplineSet
EndChar

StartChar: Oslash
Encoding: 216 216 154
Width: 479
GlyphClass: 2
Flags: W
LayerCount: 2
Fore
SplineSet
401 648 m 1,0,1
 440 596 440 596 440 513 c 2,2,-1
 440 195 l 2,3,4
 440 97 440 97 383.5 44.5 c 128,-1,5
 327 -8 327 -8 237 -8 c 0,6,7
 167 -8 167 -8 119 23 c 1,8,-1
 99 -20 l 1,9,-1
 39 -20 l 1,10,-1
 76 62 l 1,11,12
 39 112 39 112 39 195 c 2,13,-1
 39 513 l 2,14,15
 39 613 39 613 95.5 665 c 128,-1,16
 152 717 152 717 244 717 c 0,17,18
 313 717 313 717 358 687 c 1,19,-1
 380 735 l 1,20,-1
 440 735 l 1,21,-1
 401 648 l 1,0,1
165 259 m 1,22,-1
 302 563 l 1,23,24
 286 603 286 603 241 603 c 0,25,26
 201 603 201 603 183 575.5 c 128,-1,27
 165 548 165 548 165 493 c 2,28,-1
 165 259 l 1,22,-1
314 456 m 1,29,-1
 175 147 l 1,30,31
 192 105 192 105 241 105 c 0,32,33
 277 105 277 105 295.5 132.5 c 128,-1,34
 314 160 314 160 314 209 c 2,35,-1
 314 456 l 1,29,-1
EndSplineSet
EndChar

StartChar: Thorn
Encoding: 222 222 160
Width: 444
GlyphClass: 2
Flags: W
LayerCount: 2
Fore
SplineSet
382.5 537.5 m 128,-1,1
 427 482 427 482 427 371 c 0,2,3
 427 258 427 258 381.5 202.5 c 128,-1,4
 336 147 336 147 233 147 c 2,5,-1
 168 147 l 1,6,-1
 168 0 l 1,7,-1
 43 0 l 1,8,-1
 43 707 l 1,9,-1
 168 707 l 1,10,-1
 168 593 l 1,11,-1
 233 593 l 2,12,0
 338 593 338 593 382.5 537.5 c 128,-1,1
285 287 m 128,-1,14
 301 314 301 314 301 371 c 0,15,16
 301 426 301 426 285 452.5 c 128,-1,17
 269 479 269 479 229 479 c 2,18,-1
 168 479 l 1,19,-1
 168 260 l 1,20,-1
 229 260 l 2,21,13
 269 260 269 260 285 287 c 128,-1,14
EndSplineSet
EndChar

StartChar: germandbls
Encoding: 223 223 161
Width: 430
GlyphClass: 2
Flags: W
LayerCount: 2
Fore
SplineSet
217 95 m 1,0,-1
 233 95 l 2,1,2
 251 95 251 95 259.5 108 c 128,-1,3
 268 121 268 121 270 147 c 128,-1,4
 272 173 272 173 272 230 c 0,5,6
 272 282 272 282 270 307 c 128,-1,7
 268 332 268 332 260 345 c 128,-1,8
 252 358 252 358 233 358 c 2,9,-1
 215 358 l 1,10,-1
 215 458 l 1,11,-1
 231 458 l 2,12,13
 255 458 255 458 261 476.5 c 128,-1,14
 267 495 267 495 267 539 c 0,15,16
 267 575 267 575 254.5 592.5 c 128,-1,17
 242 610 242 610 215 610 c 256,18,19
 188 610 188 610 174.5 594 c 128,-1,20
 161 578 161 578 161 547 c 2,21,-1
 161 0 l 1,22,-1
 42 0 l 1,23,-1
 42 531 l 2,24,25
 42 716 42 716 215 717 c 0,26,27
 296 717 296 717 341 672.5 c 128,-1,28
 386 628 386 628 386 550 c 0,29,30
 386 495 386 495 375 467.5 c 128,-1,31
 364 440 364 440 331 417 c 1,32,33
 358 401 358 401 370.5 380.5 c 128,-1,34
 383 360 383 360 387 327 c 128,-1,35
 391 294 391 294 391 230 c 0,36,37
 391 136 391 136 382 89 c 128,-1,38
 373 42 373 42 341.5 18.5 c 128,-1,39
 310 -5 310 -5 244 -5 c 2,40,-1
 217 -5 l 1,41,-1
 217 95 l 1,0,-1
EndSplineSet
EndChar

StartChar: ae
Encoding: 230 230 168
Width: 635
GlyphClass: 2
Flags: W
LayerCount: 2
Fore
SplineSet
373 179 m 2,0,1
 373 96 373 96 426 96 c 0,2,3
 478 96 478 96 478 165 c 2,4,-1
 478 170 l 1,5,-1
 594 170 l 1,6,-1
 594 164 l 2,7,8
 594 79 594 79 550.5 35.5 c 128,-1,9
 507 -8 507 -8 427 -8 c 0,10,11
 349 -8 349 -8 308 32 c 1,12,13
 260 -8 260 -8 193 -8 c 0,14,15
 120 -8 120 -8 75.5 37 c 128,-1,16
 31 82 31 82 31 159 c 0,17,18
 31 235 31 235 77 276 c 128,-1,19
 123 317 123 317 209 317 c 2,20,-1
 254 317 l 1,21,-1
 254 386 l 2,22,23
 254 415 254 415 241 429.5 c 128,-1,24
 228 444 228 444 204 444 c 0,25,26
 181 444 181 444 168 430 c 128,-1,27
 155 416 155 416 155 391 c 2,28,-1
 155 383 l 1,29,-1
 45 383 l 1,30,-1
 45 387 l 2,31,32
 45 467 45 467 90 508 c 128,-1,33
 135 549 135 549 207 549 c 0,34,35
 272 549 272 549 314 516 c 1,36,37
 354 549 354 549 423 549 c 0,38,39
 506 549 506 549 551.5 497 c 128,-1,40
 597 445 597 445 597 336 c 2,41,-1
 597 228 l 1,42,-1
 373 228 l 1,43,-1
 373 179 l 2,0,1
386 421 m 128,-1,45
 373 400 373 400 373 354 c 2,46,-1
 373 314 l 1,47,-1
 478 314 l 1,48,-1
 478 354 l 2,49,50
 478 400 478 400 465 421 c 128,-1,51
 452 442 452 442 426 442 c 0,52,44
 399 442 399 442 386 421 c 128,-1,45
254 234 m 1,53,-1
 223 234 l 2,54,55
 187 234 187 234 168.5 218 c 128,-1,56
 150 202 150 202 150 164 c 0,57,58
 150 130 150 130 163 112.5 c 128,-1,59
 176 95 176 95 202 95 c 0,60,61
 225 95 225 95 239.5 113 c 128,-1,62
 254 131 254 131 254 162 c 2,63,-1
 254 234 l 1,53,-1
EndSplineSet
EndChar

StartChar: ccedilla
Encoding: 231 231 169
Width: 416
GlyphClass: 2
Flags: W
LayerCount: 2
Fore
SplineSet
263 352 m 1,0,-1
 263 371 l 2,1,2
 263 407 263 407 249.5 424.5 c 128,-1,3
 236 442 236 442 211 442 c 0,4,5
 184 442 184 442 171 421 c 128,-1,6
 158 400 158 400 158 354 c 2,7,-1
 158 186 l 2,8,9
 158 140 158 140 171 119 c 128,-1,10
 184 98 184 98 210 98 c 256,11,12
 236 98 236 98 249.5 116 c 128,-1,13
 263 134 263 134 263 171 c 2,14,-1
 263 188 l 1,15,-1
 378 188 l 1,16,-1
 378 171 l 2,17,18
 378 31 378 31 274 0 c 1,19,-1
 217 -162 l 1,20,-1
 113 -162 l 1,21,-1
 180 -6 l 1,22,23
 110 1 110 1 74.5 47 c 128,-1,24
 39 93 39 93 39 187 c 2,25,-1
 39 353 l 2,26,27
 39 456 39 456 83 502.5 c 128,-1,28
 127 549 127 549 211 549 c 0,29,30
 292 549 292 549 335 505 c 128,-1,31
 378 461 378 461 378 373 c 2,32,-1
 378 352 l 1,33,-1
 263 352 l 1,0,-1
EndSplineSet
EndChar

StartChar: eth
Encoding: 240 240 178
Width: 408
GlyphClass: 2
Flags: W
LayerCount: 2
Fore
SplineSet
355.5 402.5 m 128,-1,1
 370 352 370 352 370 286 c 2,2,-1
 370 181 l 2,3,4
 370 88 370 88 327.5 39 c 128,-1,5
 285 -10 285 -10 203 -10 c 0,6,7
 122 -10 122 -10 80.5 38.5 c 128,-1,8
 39 87 39 87 39 181 c 2,9,-1
 39 292 l 2,10,11
 39 381 39 381 72.5 427 c 128,-1,12
 106 473 106 473 172 473 c 0,13,14
 199 473 199 473 224 463 c 1,15,-1
 179 551 l 1,16,-1
 93 523 l 1,17,-1
 68 599 l 1,18,-1
 141 623 l 1,19,-1
 94 715 l 1,20,-1
 208 715 l 1,21,-1
 239 653 l 1,22,-1
 314 678 l 1,23,-1
 339 601 l 1,24,-1
 275 581 l 1,25,-1
 303 527 l 2,26,0
 341 453 341 453 355.5 402.5 c 128,-1,1
251 303 m 2,27,28
 251 332 251 332 239 346.5 c 128,-1,29
 227 361 227 361 205 361 c 256,30,31
 182 361 182 361 170 346.5 c 128,-1,32
 158 332 158 332 158 303 c 2,33,-1
 158 169 l 2,34,35
 158 138 158 138 170 121 c 128,-1,36
 182 104 182 104 205 104 c 256,37,38
 228 104 228 104 239.5 121 c 128,-1,39
 251 138 251 138 251 169 c 2,40,-1
 251 303 l 2,27,28
EndSplineSet
EndChar

StartChar: divide
Encoding: 247 247 185
Width: 429
GlyphClass: 2
Flags: W
LayerCount: 2
Fore
SplineSet
168.5 404.5 m 128,-1,1
 150 424 150 424 150 451 c 256,2,3
 150 478 150 478 168.5 496.5 c 128,-1,4
 187 515 187 515 214 515 c 256,5,6
 241 515 241 515 260.5 496 c 128,-1,7
 280 477 280 477 280 451 c 256,8,9
 280 424 280 424 260.5 404.5 c 128,-1,10
 241 385 241 385 214 385 c 256,11,0
 187 385 187 385 168.5 404.5 c 128,-1,1
33 339 m 1,12,-1
 396 339 l 1,13,-1
 396 225 l 1,14,-1
 33 225 l 1,15,-1
 33 339 l 1,12,-1
168.5 72 m 128,-1,17
 150 91 150 91 150 118 c 256,18,19
 150 145 150 145 168.5 164 c 128,-1,20
 187 183 187 183 214 183 c 256,21,22
 241 183 241 183 260.5 163.5 c 128,-1,23
 280 144 280 144 280 118 c 256,24,25
 280 91 280 91 260.5 72 c 128,-1,26
 241 53 241 53 214 53 c 256,27,16
 187 53 187 53 168.5 72 c 128,-1,17
EndSplineSet
EndChar

StartChar: oslash
Encoding: 248 248 186
Width: 420
GlyphClass: 2
Flags: W
LayerCount: 2
Fore
SplineSet
346 494 m 1,0,1
 382 447 382 447 382 353 c 2,2,-1
 382 187 l 2,3,4
 382 84 382 84 338.5 38 c 128,-1,5
 295 -8 295 -8 211 -8 c 0,6,7
 153 -8 153 -8 115 12 c 1,8,-1
 94 -30 l 1,9,-1
 39 -30 l 1,10,-1
 76 46 l 1,11,12
 39 96 39 96 39 187 c 2,13,-1
 39 353 l 2,14,15
 39 456 39 456 83 502.5 c 128,-1,16
 127 549 127 549 211 549 c 0,17,18
 270 549 270 549 307 527 c 1,19,-1
 327 568 l 1,20,-1
 382 568 l 1,21,-1
 346 494 l 1,0,1
158 217 m 1,22,-1
 253 416 l 1,23,24
 241 443 241 443 210 442 c 0,25,26
 184 442 184 442 171 421 c 128,-1,27
 158 400 158 400 158 354 c 2,28,-1
 158 217 l 1,22,-1
263 322 m 1,29,-1
 168 124 l 1,30,31
 181 98 181 98 210 98 c 0,32,33
 237 98 237 98 250 119 c 128,-1,34
 263 140 263 140 263 186 c 2,35,-1
 263 322 l 1,29,-1
EndSplineSet
EndChar

StartChar: thorn
Encoding: 254 254 192
Width: 419
GlyphClass: 2
Flags: W
LayerCount: 2
Fore
SplineSet
42 707 m 1,0,-1
 161 707 l 1,1,-1
 161 498 l 1,2,3
 175 523 175 523 198 536 c 128,-1,4
 221 549 221 549 252 549 c 0,5,6
 311 549 311 549 346 507 c 128,-1,7
 381 465 381 465 381 374 c 2,8,-1
 381 167 l 2,9,10
 381 76 381 76 344.5 34 c 128,-1,11
 308 -8 308 -8 250 -8 c 0,12,13
 221 -8 221 -8 199 3 c 128,-1,14
 177 14 177 14 157 38 c 1,15,-1
 157 -162 l 1,16,-1
 42 -162 l 1,17,-1
 42 707 l 1,0,-1
249.5 118.5 m 128,-1,19
 262 139 262 139 262 186 c 2,20,-1
 262 354 l 2,21,22
 262 400 262 400 249.5 421 c 128,-1,23
 237 442 237 442 211 442 c 256,24,25
 185 442 185 442 172 421 c 128,-1,26
 159 400 159 400 159 354 c 2,27,-1
 159 186 l 2,28,29
 159 98 159 98 211 98 c 0,30,18
 237 98 237 98 249.5 118.5 c 128,-1,19
EndSplineSet
EndChar

StartChar: dotlessi
Encoding: 305 305 194
Width: 210
GlyphClass: 2
Flags: W
LayerCount: 2
Fore
SplineSet
46 541 m 1,0,-1
 165 541 l 1,1,-1
 165 0 l 1,2,-1
 46 0 l 1,3,-1
 46 541 l 1,0,-1
EndSplineSet
EndChar

StartChar: OE
Encoding: 338 338 195
Width: 656
GlyphClass: 2
Flags: W
LayerCount: 2
Fore
SplineSet
440 593 m 1,0,-1
 440 416 l 1,1,-1
 604 416 l 1,2,-1
 604 303 l 1,3,-1
 440 303 l 1,4,-1
 440 113 l 1,5,-1
 631 113 l 1,6,-1
 631 0 l 1,7,-1
 332 0 l 1,8,-1
 332 29 l 1,9,10
 284 -8 284 -8 220 -8 c 0,11,12
 131 -8 131 -8 85 42.5 c 128,-1,13
 39 93 39 93 39 195 c 2,14,-1
 39 513 l 2,15,16
 39 615 39 615 87.5 666 c 128,-1,17
 136 717 136 717 226 717 c 0,18,19
 286 717 286 717 332 685 c 1,20,-1
 332 707 l 1,21,-1
 631 707 l 1,22,-1
 631 593 l 1,23,-1
 440 593 l 1,0,-1
314 493 m 2,24,25
 314 547 314 547 296 575 c 128,-1,26
 278 603 278 603 241 603 c 0,27,28
 201 603 201 603 183 575.5 c 128,-1,29
 165 548 165 548 165 493 c 2,30,-1
 165 209 l 2,31,32
 165 106 165 106 241 105 c 0,33,34
 277 105 277 105 295.5 132.5 c 128,-1,35
 314 160 314 160 314 209 c 2,36,-1
 314 493 l 2,24,25
EndSplineSet
EndChar

StartChar: oe
Encoding: 339 339 196
Width: 645
GlyphClass: 2
Flags: W
LayerCount: 2
Fore
SplineSet
382 179 m 2,0,1
 382 96 382 96 435 96 c 0,2,3
 487 96 487 96 487 165 c 2,4,-1
 487 170 l 1,5,-1
 602 170 l 1,6,-1
 602 164 l 2,7,8
 602 79 602 79 559 35.5 c 128,-1,9
 516 -8 516 -8 435 -8 c 0,10,11
 364 -8 364 -8 325 25 c 1,12,13
 283 -8 283 -8 211 -8 c 0,14,15
 127 -8 127 -8 83 38 c 128,-1,16
 39 84 39 84 39 187 c 2,17,-1
 39 353 l 2,18,19
 39 456 39 456 83 502.5 c 128,-1,20
 127 549 127 549 211 549 c 0,21,22
 283 549 283 549 325 516 c 1,23,24
 364 549 364 549 432 549 c 0,25,26
 515 549 515 549 560.5 496.5 c 128,-1,27
 606 444 606 444 606 336 c 2,28,-1
 606 228 l 1,29,-1
 382 228 l 1,30,-1
 382 179 l 2,0,1
263 354 m 2,31,32
 263 400 263 400 250 421 c 128,-1,33
 237 442 237 442 210 442 c 0,34,35
 184 442 184 442 171 421 c 128,-1,36
 158 400 158 400 158 354 c 2,37,-1
 158 186 l 2,38,39
 158 140 158 140 171 119 c 128,-1,40
 184 98 184 98 210 98 c 0,41,42
 237 98 237 98 250 119 c 128,-1,43
 263 140 263 140 263 186 c 2,44,-1
 263 354 l 2,31,32
382 314 m 1,45,-1
 487 314 l 1,46,-1
 487 354 l 2,47,48
 487 400 487 400 474 421 c 128,-1,49
 461 442 461 442 434 442 c 0,50,51
 408 442 408 442 395 421 c 128,-1,52
 382 400 382 400 382 354 c 2,53,-1
 382 314 l 1,45,-1
EndSplineSet
EndChar

StartChar: florin
Encoding: 402 402 202
Width: 399
GlyphClass: 2
Flags: W
LayerCount: 2
Fore
SplineSet
7 -54 m 1,0,-1
 30 -54 l 2,1,2
 65 -54 65 -54 80.5 -39.5 c 128,-1,3
 96 -25 96 -25 101 15 c 2,4,-1
 143 324 l 1,5,-1
 70 324 l 1,6,-1
 70 431 l 1,7,-1
 158 431 l 1,8,-1
 172 540 l 2,9,10
 183 626 183 626 225.5 666.5 c 128,-1,11
 268 707 268 707 351 707 c 2,12,-1
 392 707 l 1,13,-1
 392 599 l 1,14,-1
 365 599 l 2,15,16
 330 599 330 599 314 584.5 c 128,-1,17
 298 570 298 570 293 530 c 2,18,-1
 280 431 l 1,19,-1
 354 431 l 1,20,-1
 354 324 l 1,21,-1
 264 324 l 1,22,-1
 222 5 l 2,23,24
 211 -82 211 -82 169 -122 c 128,-1,25
 127 -162 127 -162 43 -162 c 2,26,-1
 7 -162 l 1,27,-1
 7 -54 l 1,0,-1
EndSplineSet
EndChar

StartChar: circumflex
Encoding: 710 710 203
Width: 512
GlyphClass: 2
Flags: W
LayerCount: 2
Fore
SplineSet
212 750 m 1,0,-1
 297 750 l 1,1,-1
 402 598 l 1,2,-1
 313 598 l 1,3,-1
 256 680 l 1,4,-1
 198 598 l 1,5,-1
 109 598 l 1,6,-1
 212 750 l 1,0,-1
EndSplineSet
EndChar

StartChar: caron
Encoding: 711 711 204
Width: 512
GlyphClass: 2
Flags: W
LayerCount: 2
Fore
SplineSet
109 746 m 1,0,-1
 198 746 l 1,1,-1
 256 666 l 1,2,-1
 313 746 l 1,3,-1
 402 746 l 1,4,-1
 297 595 l 1,5,-1
 212 595 l 1,6,-1
 109 746 l 1,0,-1
EndSplineSet
EndChar

StartChar: dotaccent
Encoding: 729 729 205
Width: 512
GlyphClass: 2
Flags: W
LayerCount: 2
Fore
SplineSet
197 715 m 1,0,-1
 315 715 l 1,1,-1
 315 615 l 1,2,-1
 197 615 l 1,3,-1
 197 715 l 1,0,-1
EndSplineSet
EndChar

StartChar: ring
Encoding: 730 730 206
Width: 512
GlyphClass: 2
Flags: W
LayerCount: 2
Fore
SplineSet
187.5 614.5 m 128,-1,1
 160 642 160 642 160 683 c 0,2,3
 160 725 160 725 187.5 752.5 c 128,-1,4
 215 780 215 780 256 780 c 256,5,6
 297 780 297 780 324.5 752.5 c 128,-1,7
 352 725 352 725 352 683 c 0,8,9
 352 642 352 642 324.5 614.5 c 128,-1,10
 297 587 297 587 256 587 c 256,11,0
 215 587 215 587 187.5 614.5 c 128,-1,1
288 650.5 m 128,-1,13
 301 664 301 664 301 683 c 0,14,15
 301 703 301 703 288 716.5 c 128,-1,16
 275 730 275 730 256 730 c 0,17,18
 236 730 236 730 223 716.5 c 128,-1,19
 210 703 210 703 210 683 c 0,20,21
 210 664 210 664 223.5 650.5 c 128,-1,22
 237 637 237 637 256 637 c 256,23,12
 275 637 275 637 288 650.5 c 128,-1,13
EndSplineSet
EndChar

StartChar: tilde
Encoding: 732 732 207
Width: 512
GlyphClass: 2
Flags: W
LayerCount: 2
Fore
SplineSet
140 698 m 1,0,1
 160 720 160 720 174 727.5 c 128,-1,2
 188 735 188 735 208 735 c 0,3,4
 224 735 224 735 236.5 730 c 128,-1,5
 249 725 249 725 262 716 c 0,6,7
 277 707 277 707 286.5 703 c 128,-1,8
 296 699 296 699 308 699 c 0,9,10
 324 699 324 699 335.5 707 c 128,-1,11
 347 715 347 715 371 739 c 1,12,-1
 371 645 l 1,13,14
 352 623 352 623 338.5 615 c 128,-1,15
 325 607 325 607 304 607 c 0,16,17
 287 607 287 607 275.5 612 c 128,-1,18
 264 617 264 617 249 627 c 0,19,20
 235 635 235 635 226 639 c 128,-1,21
 217 643 217 643 204 643 c 0,22,23
 188 643 188 643 175 635 c 128,-1,24
 162 627 162 627 140 603 c 1,25,-1
 140 698 l 1,0,1
EndSplineSet
EndChar

StartChar: gravecomb
Encoding: 768 768 208
Width: 0
GlyphClass: 2
Flags: W
LayerCount: 2
Fore
SplineSet
-144 743 m 1,0,-1
 -18 743 l 1,1,-1
 83 604 l 1,2,-1
 -18 604 l 1,3,-1
 -144 743 l 1,0,-1
EndSplineSet
EndChar

StartChar: acutecomb
Encoding: 769 769 209
Width: 0
GlyphClass: 2
Flags: W
LayerCount: 2
Fore
SplineSet
18 743 m 1,0,-1
 144 743 l 1,1,-1
 18 604 l 1,2,-1
 -83 604 l 1,3,-1
 18 743 l 1,0,-1
EndSplineSet
EndChar

StartChar: uni0302
Encoding: 770 770 210
Width: 0
GlyphClass: 2
Flags: W
LayerCount: 2
Fore
SplineSet
-44 750 m 1,0,-1
 41 750 l 1,1,-1
 146 598 l 1,2,-1
 57 598 l 1,3,-1
 0 680 l 1,4,-1
 -58 598 l 1,5,-1
 -147 598 l 1,6,-1
 -44 750 l 1,0,-1
EndSplineSet
EndChar

StartChar: tildecomb
Encoding: 771 771 211
Width: 0
GlyphClass: 2
Flags: W
LayerCount: 2
Fore
SplineSet
-116 698 m 1,0,1
 -96 720 -96 720 -82 727.5 c 128,-1,2
 -68 735 -68 735 -48 735 c 0,3,4
 -32 735 -32 735 -19.5 730 c 128,-1,5
 -7 725 -7 725 6 716 c 0,6,7
 21 707 21 707 30.5 703 c 128,-1,8
 40 699 40 699 52 699 c 0,9,10
 68 699 68 699 79.5 707 c 128,-1,11
 91 715 91 715 115 739 c 1,12,-1
 115 645 l 1,13,14
 96 623 96 623 82.5 615 c 128,-1,15
 69 607 69 607 48 607 c 0,16,17
 31 607 31 607 19.5 612 c 128,-1,18
 8 617 8 617 -7 627 c 0,19,20
 -21 635 -21 635 -30 639 c 128,-1,21
 -39 643 -39 643 -52 643 c 0,22,23
 -68 643 -68 643 -81 635 c 128,-1,24
 -94 627 -94 627 -116 603 c 1,25,-1
 -116 698 l 1,0,1
EndSplineSet
EndChar

StartChar: uni0308
Encoding: 776 776 212
Width: 0
GlyphClass: 2
Flags: W
LayerCount: 2
Fore
SplineSet
-128 722 m 1,0,-1
 -33 722 l 1,1,-1
 -33 605 l 1,2,-1
 -128 605 l 1,3,-1
 -128 722 l 1,0,-1
32 722 m 1,4,-1
 127 722 l 1,5,-1
 127 605 l 1,6,-1
 32 605 l 1,7,-1
 32 722 l 1,4,-1
EndSplineSet
EndChar

StartChar: uni030A
Encoding: 778 778 213
Width: 0
GlyphClass: 2
Flags: W
LayerCount: 2
Fore
SplineSet
-68.5 614.5 m 128,-1,1
 -96 642 -96 642 -96 683 c 0,2,3
 -96 725 -96 725 -68.5 752.5 c 128,-1,4
 -41 780 -41 780 0 780 c 256,5,6
 41 780 41 780 68.5 752.5 c 128,-1,7
 96 725 96 725 96 683 c 0,8,9
 96 642 96 642 68.5 614.5 c 128,-1,10
 41 587 41 587 0 587 c 256,11,0
 -41 587 -41 587 -68.5 614.5 c 128,-1,1
32 650.5 m 128,-1,13
 45 664 45 664 45 683 c 0,14,15
 45 703 45 703 32 716.5 c 128,-1,16
 19 730 19 730 0 730 c 0,17,18
 -20 730 -20 730 -33 716.5 c 128,-1,19
 -46 703 -46 703 -46 683 c 0,20,21
 -46 664 -46 664 -33 650.5 c 128,-1,22
 -20 637 -20 637 0 637 c 0,23,12
 19 637 19 637 32 650.5 c 128,-1,13
EndSplineSet
EndChar

StartChar: endash
Encoding: 8211 8211 214
Width: 427
GlyphClass: 2
Flags: W
LayerCount: 2
Fore
SplineSet
0 411 m 1,0,-1
 427 411 l 1,1,-1
 427 298 l 1,2,-1
 0 298 l 1,3,-1
 0 411 l 1,0,-1
EndSplineSet
EndChar

StartChar: emdash
Encoding: 8212 8212 215
Width: 852
GlyphClass: 2
Flags: W
LayerCount: 2
Fore
SplineSet
0 411 m 1,0,-1
 853 411 l 1,1,-1
 853 298 l 1,2,-1
 0 298 l 1,3,-1
 0 411 l 1,0,-1
EndSplineSet
EndChar

StartChar: quoteleft
Encoding: 8216 8216 216
Width: 175
GlyphClass: 2
Flags: W
LayerCount: 2
Fore
SplineSet
145 444 m 1,0,-1
 30 444 l 1,1,-1
 30 651 l 1,2,-1
 145 744 l 1,3,-1
 145 444 l 1,0,-1
73 707 m 1024,4,-1
EndSplineSet
EndChar

StartChar: quoteright
Encoding: 8217 8217 217
Width: 175
GlyphClass: 2
Flags: W
LayerCount: 2
Fore
SplineSet
30 707 m 1,0,-1
 145 707 l 1,1,-1
 145 500 l 1,2,-1
 30 407 l 1,3,-1
 30 707 l 1,0,-1
EndSplineSet
EndChar

StartChar: quotedblleft
Encoding: 8220 8220 219
Width: 359
GlyphClass: 2
Flags: W
LayerCount: 2
Fore
SplineSet
145 444 m 1,0,-1
 30 444 l 1,1,-1
 30 651 l 1,2,-1
 145 744 l 1,3,-1
 145 444 l 1,0,-1
330 444 m 1,4,-1
 214 444 l 1,5,-1
 214 651 l 1,6,-1
 330 744 l 1,7,-1
 330 444 l 1,4,-1
189 707 m 1024,8,-1
EndSplineSet
EndChar

StartChar: quotedblright
Encoding: 8221 8221 220
Width: 359
GlyphClass: 2
Flags: W
LayerCount: 2
Fore
SplineSet
30 707 m 1,0,-1
 145 707 l 1,1,-1
 145 500 l 1,2,-1
 30 407 l 1,3,-1
 30 707 l 1,0,-1
214 707 m 1,4,-1
 330 707 l 1,5,-1
 330 500 l 1,6,-1
 214 407 l 1,7,-1
 214 707 l 1,4,-1
EndSplineSet
EndChar

StartChar: dagger
Encoding: 8224 8224 222
Width: 466
GlyphClass: 2
Flags: W
LayerCount: 2
Fore
SplineSet
425 382 m 1,0,-1
 297 382 l 1,1,-1
 297 -162 l 1,2,-1
 171 -162 l 1,3,-1
 171 382 l 1,4,-1
 42 382 l 1,5,-1
 42 496 l 1,6,-1
 171 496 l 1,7,-1
 171 707 l 1,8,-1
 297 707 l 1,9,-1
 297 496 l 1,10,-1
 425 496 l 1,11,-1
 425 382 l 1,0,-1
EndSplineSet
EndChar

StartChar: daggerdbl
Encoding: 8225 8225 223
Width: 466
GlyphClass: 2
Flags: W
LayerCount: 2
Fore
SplineSet
297 382 m 1,0,-1
 297 171 l 1,1,-1
 425 171 l 1,2,-1
 425 57 l 1,3,-1
 297 57 l 1,4,-1
 297 -162 l 1,5,-1
 171 -162 l 1,6,-1
 171 57 l 1,7,-1
 42 57 l 1,8,-1
 42 171 l 1,9,-1
 171 171 l 1,10,-1
 171 382 l 1,11,-1
 42 382 l 1,12,-1
 42 496 l 1,13,-1
 171 496 l 1,14,-1
 171 707 l 1,15,-1
 297 707 l 1,16,-1
 297 496 l 1,17,-1
 425 496 l 1,18,-1
 425 382 l 1,19,-1
 297 382 l 1,0,-1
EndSplineSet
EndChar

StartChar: bullet
Encoding: 8226 8226 224
Width: 405
GlyphClass: 2
Flags: W
LayerCount: 2
Fore
SplineSet
102 216 m 128,-1,1
 62 256 62 256 62 315 c 0,2,3
 62 375 62 375 102 415 c 128,-1,4
 142 455 142 455 202 455 c 0,5,6
 262 455 262 455 302 415 c 128,-1,7
 342 375 342 375 342 315 c 256,8,9
 342 256 342 256 302 216 c 128,-1,10
 262 176 262 176 202 176 c 0,11,0
 142 176 142 176 102 216 c 128,-1,1
EndSplineSet
EndChar

StartChar: perthousand
Encoding: 8240 8240 226
Width: 1071
GlyphClass: 2
Flags: W
LayerCount: 2
Fore
SplineSet
481 715 m 1,0,-1
 565 715 l 1,1,-1
 299 0 l 1,2,-1
 215 0 l 1,3,-1
 481 715 l 1,0,-1
32 387 m 2,5,-1
 32 598 l 2,6,7
 32 713 32 713 145 713 c 256,8,9
 259 713 259 713 259 598 c 2,10,-1
 259 387 l 2,11,12
 259 272 259 272 145 272 c 256,13,4
 32 272 32 272 32 387 c 2,5,-1
169.5 359 m 128,-1,15
 176 370 176 370 176 399 c 2,16,-1
 176 586 l 2,17,18
 176 617 176 617 169.5 627 c 128,-1,19
 163 637 163 637 145 637 c 256,20,21
 128 637 128 637 122 626.5 c 128,-1,22
 116 616 116 616 116 586 c 2,23,-1
 116 399 l 2,24,25
 116 369 116 369 122 358.5 c 128,-1,26
 128 348 128 348 145 348 c 256,27,14
 163 348 163 348 169.5 359 c 128,-1,15
521 108 m 2,29,-1
 521 318 l 2,30,31
 521 433 521 433 635 433 c 256,32,33
 749 433 749 433 749 318 c 2,34,-1
 749 108 l 2,35,36
 749 -7 749 -7 635 -7 c 256,37,28
 521 -7 521 -7 521 108 c 2,29,-1
812 108 m 2,39,-1
 812 318 l 2,40,41
 812 433 812 433 926 433 c 256,42,43
 1040 433 1040 433 1039 318 c 2,44,-1
 1039 108 l 2,45,46
 1039 -7 1039 -7 926 -7 c 256,47,38
 812 -7 812 -7 812 108 c 2,39,-1
659 79.5 m 128,-1,49
 666 90 666 90 666 120 c 2,50,-1
 666 306 l 2,51,52
 666 337 666 337 659 347 c 128,-1,53
 652 357 652 357 635 357 c 256,54,55
 618 357 618 357 611.5 347 c 128,-1,56
 605 337 605 337 605 306 c 2,57,-1
 605 120 l 2,58,59
 605 90 605 90 611 79.5 c 128,-1,60
 617 69 617 69 635 69 c 256,61,48
 652 69 652 69 659 79.5 c 128,-1,49
949.5 79.5 m 128,-1,63
 956 90 956 90 956 120 c 2,64,-1
 956 306 l 2,65,66
 956 337 956 337 949.5 347 c 128,-1,67
 943 357 943 357 926 357 c 256,68,69
 909 357 909 357 902.5 347 c 128,-1,70
 896 337 896 337 896 306 c 2,71,-1
 896 120 l 2,72,73
 896 90 896 90 902 79.5 c 128,-1,74
 908 69 908 69 926 69 c 256,75,62
 943 69 943 69 949.5 79.5 c 128,-1,63
EndSplineSet
EndChar

StartChar: guilsinglleft
Encoding: 8249 8249 227
Width: 254
GlyphClass: 2
Flags: W
LayerCount: 2
Fore
SplineSet
14 270 m 1,0,-1
 213 473 l 1,1,-1
 213 360 l 1,2,-1
 125 270 l 1,3,-1
 213 180 l 1,4,-1
 213 68 l 1,5,-1
 14 270 l 1,0,-1
EndSplineSet
Substitution2: "'rtla' Right to Left Alternates lookup 0 subtable" guilsinglright
EndChar

StartChar: guilsinglright
Encoding: 8250 8250 228
Width: 262
GlyphClass: 2
Flags: W
LayerCount: 2
Fore
SplineSet
42 180 m 1,0,-1
 130 270 l 1,1,-1
 42 360 l 1,2,-1
 42 473 l 1,3,-1
 241 270 l 1,4,-1
 42 68 l 1,5,-1
 42 180 l 1,0,-1
EndSplineSet
Substitution2: "'rtla' Right to Left Alternates lookup 0 subtable" guilsinglleft
EndChar

StartChar: Euro
Encoding: 8364 8364 229
Width: 464
GlyphClass: 2
Flags: W
LayerCount: 2
Fore
SplineSet
120 38 m 128,-1,1
 77 85 77 85 77 179 c 2,2,-1
 77 247 l 1,3,-1
 20 247 l 1,4,-1
 20 330 l 1,5,-1
 77 330 l 1,6,-1
 77 382 l 1,7,-1
 20 382 l 1,8,-1
 20 465 l 1,9,-1
 77 465 l 1,10,-1
 77 529 l 2,11,12
 77 620 77 620 121.5 668.5 c 128,-1,13
 166 717 166 717 253 717 c 0,14,15
 338 717 338 717 381.5 670.5 c 128,-1,16
 425 624 425 624 426 532 c 1,17,-1
 308 532 l 1,18,19
 307 570 307 570 295 588 c 128,-1,20
 283 606 283 606 256 606 c 0,21,22
 227 606 227 606 215 587.5 c 128,-1,23
 203 569 203 569 203 532 c 2,24,-1
 203 465 l 1,25,-1
 360 465 l 1,26,-1
 346 382 l 1,27,-1
 203 382 l 1,28,-1
 203 330 l 1,29,-1
 338 330 l 1,30,-1
 323 247 l 1,31,-1
 203 247 l 1,32,-1
 203 178 l 2,33,34
 203 139 203 139 214.5 120 c 128,-1,35
 226 101 226 101 254 101 c 0,36,37
 281 101 281 101 293.5 119.5 c 128,-1,38
 306 138 306 138 308 175 c 1,39,-1
 426 175 l 1,40,41
 419 -9 419 -9 252 -9 c 0,42,0
 163 -9 163 -9 120 38 c 128,-1,1
EndSplineSet
EndChar

StartChar: trademark
Encoding: 8482 8482 230
Width: 635
GlyphClass: 2
Flags: W
LayerCount: 2
Fore
SplineSet
95 628 m 1,0,-1
 22 628 l 1,1,-1
 22 707 l 1,2,-1
 256 707 l 1,3,-1
 256 628 l 1,4,-1
 181 628 l 1,5,-1
 181 303 l 1,6,-1
 95 303 l 1,7,-1
 95 628 l 1,0,-1
299 707 m 1,8,-1
 386 707 l 1,9,-1
 447 483 l 1,10,-1
 450 483 l 1,11,-1
 507 707 l 1,12,-1
 593 707 l 1,13,-1
 593 303 l 1,14,-1
 513 303 l 1,15,-1
 513 513 l 1,16,-1
 511 513 l 1,17,-1
 472 367 l 1,18,-1
 421 367 l 1,19,-1
 381 513 l 1,20,-1
 379 513 l 1,21,-1
 379 303 l 1,22,-1
 299 303 l 1,23,-1
 299 707 l 1,8,-1
EndSplineSet
EndChar

StartChar: t_t
Encoding: 65539 -1 234
Width: 595
GlyphClass: 3
Flags: W
LayerCount: 2
Fore
SplineSet
485 458 m 1,0,-1
 485 175 l 2,1,2
 485 106 485 106 554 106 c 2,3,-1
 558 106 l 1,4,-1
 558 0 l 1,5,-1
 554 0 l 2,6,7
 462 0 462 0 414.5 40.5 c 128,-1,8
 367 81 367 81 367 168 c 2,9,-1
 367 458 l 1,10,-1
 199 458 l 1,11,-1
 199 175 l 2,12,13
 199 106 199 106 267 106 c 2,14,-1
 271 106 l 1,15,-1
 271 0 l 1,16,-1
 267 0 l 2,17,18
 175 0 175 0 127.5 40.5 c 128,-1,19
 80 81 80 81 80 168 c 2,20,-1
 80 458 l 1,21,-1
 19 458 l 1,22,-1
 19 541 l 1,23,-1
 80 541 l 1,24,-1
 80 636 l 1,25,-1
 199 684 l 1,26,-1
 199 541 l 1,27,-1
 367 541 l 1,28,-1
 367 636 l 1,29,-1
 485 684 l 1,30,-1
 485 541 l 1,31,-1
 571 541 l 1,32,-1
 571 458 l 1,33,-1
 485 458 l 1,0,-1
EndSplineSet
Ligature2: "'dlig' Discretionary Ligatures in Latin lookup 3 subtable" t t
EndChar

StartChar: zero.sups
Encoding: 65550 -1 245
Width: 290
GlyphClass: 2
Flags: W
LayerCount: 2
Fore
SplineSet
32 549 m 2,1,-1
 32 760 l 2,2,3
 32 875 32 875 145 874 c 256,4,5
 259 874 259 874 259 760 c 2,6,-1
 259 549 l 2,7,8
 259 434 259 434 145 434 c 256,9,0
 32 434 32 434 32 549 c 2,1,-1
169.5 520.5 m 128,-1,11
 176 531 176 531 176 561 c 2,12,-1
 176 748 l 2,13,14
 176 779 176 779 169.5 789 c 128,-1,15
 163 799 163 799 145 799 c 256,16,17
 128 799 128 799 122 788.5 c 128,-1,18
 116 778 116 778 116 748 c 2,19,-1
 116 561 l 2,20,21
 116 531 116 531 122 520.5 c 128,-1,22
 128 510 128 510 145 510 c 256,23,10
 163 510 163 510 169.5 520.5 c 128,-1,11
EndSplineSet
EndChar

StartChar: one.sups
Encoding: 65551 -1 246
Width: 220
GlyphClass: 2
Flags: W
LayerCount: 2
Fore
SplineSet
90 769 m 1,0,-1
 25 725 l 1,1,-1
 25 823 l 1,2,-1
 90 867 l 1,3,-1
 175 867 l 1,4,-1
 175 440 l 1,5,-1
 90 440 l 1,6,-1
 90 769 l 1,0,-1
EndSplineSet
EndChar

StartChar: two.sups
Encoding: 65552 -1 247
Width: 289
GlyphClass: 2
Flags: W
LayerCount: 2
Fore
SplineSet
32 510 m 1,0,-1
 153 689 l 2,1,2
 165 706 165 706 169.5 717.5 c 128,-1,3
 174 729 174 729 174 748 c 2,4,-1
 174 770 l 2,5,6
 174 781 174 781 167 789.5 c 128,-1,7
 160 798 160 798 144 798 c 0,8,9
 116 798 116 798 117 773 c 2,10,-1
 117 741 l 1,11,-1
 35 741 l 1,12,-1
 35 781 l 2,13,14
 35 824 35 824 65.5 848.5 c 128,-1,15
 96 873 96 873 146 873 c 0,16,17
 197 873 197 873 226.5 848 c 128,-1,18
 256 823 256 823 256 779 c 2,19,-1
 256 748 l 2,20,21
 256 718 256 718 248.5 698.5 c 128,-1,22
 241 679 241 679 223 653 c 2,23,-1
 126 516 l 1,24,-1
 257 516 l 1,25,-1
 257 440 l 1,26,-1
 32 440 l 1,27,-1
 32 510 l 1,0,-1
EndSplineSet
EndChar

StartChar: three.sups
Encoding: 65553 -1 248
Width: 284
GlyphClass: 2
Flags: W
LayerCount: 2
Fore
SplineSet
57.5 459 m 128,-1,1
 29 484 29 484 29 530 c 2,2,-1
 29 562 l 1,3,-1
 111 562 l 1,4,-1
 111 538 l 2,5,6
 111 510 111 510 139 510 c 0,7,8
 156 510 156 510 162.5 517 c 128,-1,9
 169 524 169 524 169 542 c 2,10,-1
 169 582 l 2,11,12
 169 604 169 604 162.5 613 c 128,-1,13
 156 622 156 622 134 622 c 2,14,-1
 118 622 l 1,15,-1
 118 697 l 1,16,-1
 136 697 l 2,17,18
 155 697 155 697 162 705.5 c 128,-1,19
 169 714 169 714 169 732 c 2,20,-1
 169 765 l 2,21,22
 169 781 169 781 162.5 789 c 128,-1,23
 156 797 156 797 139 797 c 0,24,25
 110 797 110 797 111 769 c 2,26,-1
 111 743 l 1,27,-1
 29 743 l 1,28,-1
 29 774 l 2,29,30
 29 821 29 821 58.5 847 c 128,-1,31
 88 873 88 873 140 873 c 0,32,33
 194 873 194 873 223.5 847 c 128,-1,34
 253 821 253 821 253 774 c 2,35,-1
 253 739 l 2,36,37
 253 709 253 709 243 692.5 c 128,-1,38
 233 676 233 676 206 663 c 1,39,40
 235 651 235 651 244 634 c 128,-1,41
 253 617 253 617 253 587 c 2,42,-1
 253 540 l 2,43,44
 253 489 253 489 223.5 461.5 c 128,-1,45
 194 434 194 434 140 434 c 0,46,0
 86 434 86 434 57.5 459 c 128,-1,1
EndSplineSet
EndChar

StartChar: four.sups
Encoding: 65554 -1 249
Width: 293
GlyphClass: 2
Flags: W
LayerCount: 2
Fore
SplineSet
273 506 m 1,0,-1
 244 506 l 1,1,-1
 244 440 l 1,2,-1
 160 440 l 1,3,-1
 160 506 l 1,4,-1
 18 506 l 1,5,-1
 18 582 l 1,6,-1
 112 867 l 1,7,-1
 196 867 l 1,8,-1
 103 582 l 1,9,-1
 160 582 l 1,10,-1
 160 665 l 1,11,-1
 244 665 l 1,12,-1
 244 582 l 1,13,-1
 273 582 l 1,14,-1
 273 506 l 1,0,-1
EndSplineSet
EndChar

StartChar: glyph249
Encoding: 65555 -1 250
Width: 198
GlyphClass: 2
Flags: W
LayerCount: 2
Fore
SplineSet
190 715 m 1,0,-1
 274 715 l 1,1,-1
 8 0 l 1,2,-1
 -76 0 l 1,3,-1
 190 715 l 1,0,-1
EndSplineSet
EndChar
